ISO-10303-21;
HEADER;
FILE_DESCRIPTION((''),'2;1');
FILE_NAME('01B_SCHAUM','2026-05-18T10:20:52',('Samuel'),(''),
'CREO PARAMETRIC BY PTC INC, 2023073','CREO PARAMETRIC BY PTC INC, 2023073','');
FILE_SCHEMA(('CONFIG_CONTROL_DESIGN'));
ENDSEC;
DATA;
#2=DIRECTION('',(1.E0,0.E0,0.E0));
#3=VECTOR('',#2,4.63E2);
#4=CARTESIAN_POINT('',(-2.315E2,0.E0,1.75E2));
#5=LINE('',#4,#3);
#6=DIRECTION('',(0.E0,0.E0,-1.E0));
#7=VECTOR('',#6,3.5E2);
#8=CARTESIAN_POINT('',(2.315E2,0.E0,1.75E2));
#9=LINE('',#8,#7);
#10=DIRECTION('',(-1.E0,0.E0,0.E0));
#11=VECTOR('',#10,4.63E2);
#12=CARTESIAN_POINT('',(2.315E2,0.E0,-1.75E2));
#13=LINE('',#12,#11);
#14=DIRECTION('',(0.E0,0.E0,1.E0));
#15=VECTOR('',#14,3.5E2);
#16=CARTESIAN_POINT('',(-2.315E2,0.E0,-1.75E2));
#17=LINE('',#16,#15);
#18=DIRECTION('',(0.E0,1.E0,0.E0));
#19=VECTOR('',#18,1.05E2);
#20=CARTESIAN_POINT('',(-2.315E2,0.E0,1.75E2));
#21=LINE('',#20,#19);
#22=DIRECTION('',(0.E0,1.E0,0.E0));
#23=VECTOR('',#22,1.05E2);
#24=CARTESIAN_POINT('',(-2.315E2,0.E0,-1.75E2));
#25=LINE('',#24,#23);
#26=DIRECTION('',(0.E0,1.E0,0.E0));
#27=VECTOR('',#26,1.05E2);
#28=CARTESIAN_POINT('',(2.315E2,0.E0,-1.75E2));
#29=LINE('',#28,#27);
#30=DIRECTION('',(0.E0,1.E0,0.E0));
#31=VECTOR('',#30,1.05E2);
#32=CARTESIAN_POINT('',(2.315E2,0.E0,1.75E2));
#33=LINE('',#32,#31);
#34=DIRECTION('',(1.E0,0.E0,0.E0));
#35=VECTOR('',#34,4.63E2);
#36=CARTESIAN_POINT('',(-2.315E2,1.05E2,1.75E2));
#37=LINE('',#36,#35);
#38=DIRECTION('',(0.E0,0.E0,1.E0));
#39=VECTOR('',#38,3.5E2);
#40=CARTESIAN_POINT('',(-2.315E2,1.05E2,-1.75E2));
#41=LINE('',#40,#39);
#42=DIRECTION('',(-1.E0,0.E0,0.E0));
#43=VECTOR('',#42,4.63E2);
#44=CARTESIAN_POINT('',(2.315E2,1.05E2,-1.75E2));
#45=LINE('',#44,#43);
#46=DIRECTION('',(0.E0,0.E0,-1.E0));
#47=VECTOR('',#46,3.5E2);
#48=CARTESIAN_POINT('',(2.315E2,1.05E2,1.75E2));
#49=LINE('',#48,#47);
#50=DIRECTION('',(-1.E0,0.E0,0.E0));
#51=VECTOR('',#50,6.2E1);
#52=CARTESIAN_POINT('',(2.165E2,1.05E2,-1.6E2));
#53=LINE('',#52,#51);
#54=DIRECTION('',(0.E0,0.E0,1.E0));
#55=VECTOR('',#54,2.05E2);
#56=CARTESIAN_POINT('',(1.545E2,1.05E2,-1.6E2));
#57=LINE('',#56,#55);
#58=DIRECTION('',(1.E0,0.E0,0.E0));
#59=VECTOR('',#58,6.2E1);
#60=CARTESIAN_POINT('',(1.545E2,1.05E2,4.5E1));
#61=LINE('',#60,#59);
#62=DIRECTION('',(0.E0,0.E0,-1.E0));
#63=VECTOR('',#62,2.05E2);
#64=CARTESIAN_POINT('',(2.165E2,1.05E2,4.5E1));
#65=LINE('',#64,#63);
#66=DIRECTION('',(1.E0,0.E0,0.E0));
#67=VECTOR('',#66,3.33E1);
#68=CARTESIAN_POINT('',(-6.15E1,1.05E2,1.6E2));
#69=LINE('',#68,#67);
#70=DIRECTION('',(0.E0,0.E0,-1.E0));
#71=VECTOR('',#70,6.3E1);
#72=CARTESIAN_POINT('',(-2.82E1,1.05E2,1.6E2));
#73=LINE('',#72,#71);
#74=DIRECTION('',(-1.E0,0.E0,0.E0));
#75=VECTOR('',#74,3.33E1);
#76=CARTESIAN_POINT('',(-2.82E1,1.05E2,9.7E1));
#77=LINE('',#76,#75);
#78=DIRECTION('',(0.E0,0.E0,1.E0));
#79=VECTOR('',#78,6.3E1);
#80=CARTESIAN_POINT('',(-6.15E1,1.05E2,9.7E1));
#81=LINE('',#80,#79);
#82=DIRECTION('',(0.E0,0.E0,1.E0));
#83=VECTOR('',#82,1.5E1);
#84=CARTESIAN_POINT('',(1.193961049584E2,1.05E2,1.261545391916E2));
#85=LINE('',#84,#83);
#86=DIRECTION('',(1.E0,0.E0,0.E0));
#87=VECTOR('',#86,3.E1);
#88=CARTESIAN_POINT('',(1.193961049584E2,1.05E2,1.411545391916E2));
#89=LINE('',#88,#87);
#90=DIRECTION('',(0.E0,0.E0,-1.E0));
#91=VECTOR('',#90,1.5E1);
#92=CARTESIAN_POINT('',(1.493961049584E2,1.05E2,1.411545391916E2));
#93=LINE('',#92,#91);
#94=DIRECTION('',(-1.E0,0.E0,0.E0));
#95=VECTOR('',#94,3.E1);
#96=CARTESIAN_POINT('',(1.493961049584E2,1.05E2,1.261545391916E2));
#97=LINE('',#96,#95);
#98=CARTESIAN_POINT('',(2.012348609287E2,1.05E2,1.45E2));
#99=DIRECTION('',(0.E0,1.E0,0.E0));
#100=DIRECTION('',(1.E0,0.E0,0.E0));
#101=AXIS2_PLACEMENT_3D('',#98,#99,#100);
#103=CARTESIAN_POINT('',(2.012348609287E2,1.05E2,1.45E2));
#104=DIRECTION('',(0.E0,1.E0,0.E0));
#105=DIRECTION('',(-1.E0,0.E0,0.E0));
#106=AXIS2_PLACEMENT_3D('',#103,#104,#105);
#108=DIRECTION('',(0.E0,0.E0,1.E0));
#109=VECTOR('',#108,2.13E1);
#110=CARTESIAN_POINT('',(1.623827806794E2,1.05E2,8.487787071514E1));
#111=LINE('',#110,#109);
#112=DIRECTION('',(1.E0,0.E0,0.E0));
#113=VECTOR('',#112,1.12E1);
#114=CARTESIAN_POINT('',(1.623827806794E2,1.05E2,1.061778707151E2));
#115=LINE('',#114,#113);
#116=DIRECTION('',(0.E0,0.E0,-1.E0));
#117=VECTOR('',#116,2.13E1);
#118=CARTESIAN_POINT('',(1.735827806794E2,1.05E2,1.061778707151E2));
#119=LINE('',#118,#117);
#120=DIRECTION('',(-1.E0,0.E0,0.E0));
#121=VECTOR('',#120,1.12E1);
#122=CARTESIAN_POINT('',(1.735827806794E2,1.05E2,8.487787071514E1));
#123=LINE('',#122,#121);
#124=DIRECTION('',(0.E0,0.E0,1.E0));
#125=VECTOR('',#124,2.3E2);
#126=CARTESIAN_POINT('',(5.95E1,1.05E2,-1.6E2));
#127=LINE('',#126,#125);
#128=DIRECTION('',(1.E0,0.E0,0.E0));
#129=VECTOR('',#128,1.5E1);
#130=CARTESIAN_POINT('',(5.95E1,1.05E2,7.E1));
#131=LINE('',#130,#129);
#132=DIRECTION('',(0.E0,0.E0,-1.E0));
#133=VECTOR('',#132,2.3E2);
#134=CARTESIAN_POINT('',(7.45E1,1.05E2,7.E1));
#135=LINE('',#134,#133);
#136=DIRECTION('',(-1.E0,0.E0,0.E0));
#137=VECTOR('',#136,1.5E1);
#138=CARTESIAN_POINT('',(7.45E1,1.05E2,-1.6E2));
#139=LINE('',#138,#137);
#140=DIRECTION('',(-1.E0,0.E0,0.E0));
#141=VECTOR('',#140,2.15E1);
#142=CARTESIAN_POINT('',(1.44E2,1.05E2,-1.6E2));
#143=LINE('',#142,#141);
#144=DIRECTION('',(0.E0,0.E0,1.E0));
#145=VECTOR('',#144,2.6E2);
#146=CARTESIAN_POINT('',(1.225E2,1.05E2,-1.6E2));
#147=LINE('',#146,#145);
#148=DIRECTION('',(1.E0,0.E0,0.E0));
#149=VECTOR('',#148,2.15E1);
#150=CARTESIAN_POINT('',(1.225E2,1.05E2,1.E2));
#151=LINE('',#150,#149);
#152=DIRECTION('',(0.E0,0.E0,-1.E0));
#153=VECTOR('',#152,2.6E2);
#154=CARTESIAN_POINT('',(1.44E2,1.05E2,1.E2));
#155=LINE('',#154,#153);
#156=DIRECTION('',(1.E0,0.E0,0.E0));
#157=VECTOR('',#156,3.4E1);
#158=CARTESIAN_POINT('',(-1.105E2,1.05E2,5.E0));
#159=LINE('',#158,#157);
#160=DIRECTION('',(0.E0,0.E0,-1.E0));
#161=VECTOR('',#160,1.55E2);
#162=CARTESIAN_POINT('',(-7.65E1,1.05E2,5.E0));
#163=LINE('',#162,#161);
#164=DIRECTION('',(0.E0,0.E0,1.E0));
#165=VECTOR('',#164,1.9E2);
#166=CARTESIAN_POINT('',(-2.065E2,1.05E2,-1.5E2));
#167=LINE('',#166,#165);
#168=DIRECTION('',(1.E0,0.E0,0.E0));
#169=VECTOR('',#168,9.6E1);
#170=CARTESIAN_POINT('',(-2.065E2,1.05E2,4.E1));
#171=LINE('',#170,#169);
#172=DIRECTION('',(0.E0,0.E0,-1.E0));
#173=VECTOR('',#172,3.5E1);
#174=CARTESIAN_POINT('',(-1.105E2,1.05E2,4.E1));
#175=LINE('',#174,#173);
#176=DIRECTION('',(0.E0,0.E0,1.E0));
#177=VECTOR('',#176,1.6E2);
#178=CARTESIAN_POINT('',(-3.15E1,1.05E2,-1.5E2));
#179=LINE('',#178,#177);
#180=DIRECTION('',(1.E0,0.E0,0.E0));
#181=VECTOR('',#180,7.1E1);
#182=CARTESIAN_POINT('',(-3.15E1,1.05E2,1.E1));
#183=LINE('',#182,#181);
#184=DIRECTION('',(0.E0,0.E0,-1.E0));
#185=VECTOR('',#184,1.6E2);
#186=CARTESIAN_POINT('',(3.95E1,1.05E2,1.E1));
#187=LINE('',#186,#185);
#188=DIRECTION('',(-1.E0,0.E0,0.E0));
#189=VECTOR('',#188,7.1E1);
#190=CARTESIAN_POINT('',(3.95E1,1.05E2,-1.5E2));
#191=LINE('',#190,#189);
#192=DIRECTION('',(0.E0,0.E0,1.E0));
#193=VECTOR('',#192,8.E1);
#194=CARTESIAN_POINT('',(-1.32E1,1.05E2,8.E1));
#195=LINE('',#194,#193);
#196=DIRECTION('',(1.E0,0.E0,0.E0));
#197=VECTOR('',#196,1.2E2);
#198=CARTESIAN_POINT('',(-1.32E1,1.05E2,1.6E2));
#199=LINE('',#198,#197);
#200=DIRECTION('',(0.E0,0.E0,-1.E0));
#201=VECTOR('',#200,8.E1);
#202=CARTESIAN_POINT('',(1.068E2,1.05E2,1.6E2));
#203=LINE('',#202,#201);
#204=DIRECTION('',(-1.E0,0.E0,0.E0));
#205=VECTOR('',#204,1.2E2);
#206=CARTESIAN_POINT('',(1.068E2,1.05E2,8.E1));
#207=LINE('',#206,#205);
#208=CARTESIAN_POINT('',(2.012348609287E2,1.05E2,1.E2));
#209=DIRECTION('',(0.E0,1.E0,0.E0));
#210=DIRECTION('',(1.E0,0.E0,0.E0));
#211=AXIS2_PLACEMENT_3D('',#208,#209,#210);
#213=CARTESIAN_POINT('',(2.012348609287E2,1.05E2,1.E2));
#214=DIRECTION('',(0.E0,1.E0,0.E0));
#215=DIRECTION('',(-1.E0,0.E0,0.E0));
#216=AXIS2_PLACEMENT_3D('',#213,#214,#215);
#218=CARTESIAN_POINT('',(-5.586114227287E1,1.05E2,4.622196520936E1));
#219=DIRECTION('',(0.E0,1.E0,0.E0));
#220=DIRECTION('',(1.E0,0.E0,0.E0));
#221=AXIS2_PLACEMENT_3D('',#218,#219,#220);
#223=CARTESIAN_POINT('',(-5.586114227287E1,1.05E2,4.622196520936E1));
#224=DIRECTION('',(0.E0,1.E0,0.E0));
#225=DIRECTION('',(-1.E0,0.E0,0.E0));
#226=AXIS2_PLACEMENT_3D('',#223,#224,#225);
#228=DIRECTION('',(0.E0,0.E0,1.E0));
#229=VECTOR('',#228,8.E1);
#230=CARTESIAN_POINT('',(-2.165E2,1.05E2,8.E1));
#231=LINE('',#230,#229);
#232=DIRECTION('',(1.E0,0.E0,0.E0));
#233=VECTOR('',#232,1.4E2);
#234=CARTESIAN_POINT('',(-2.165E2,1.05E2,1.6E2));
#235=LINE('',#234,#233);
#236=DIRECTION('',(0.E0,0.E0,-1.E0));
#237=VECTOR('',#236,8.E1);
#238=CARTESIAN_POINT('',(-7.65E1,1.05E2,1.6E2));
#239=LINE('',#238,#237);
#240=DIRECTION('',(-1.E0,0.E0,0.E0));
#241=VECTOR('',#240,1.4E2);
#242=CARTESIAN_POINT('',(-7.65E1,1.05E2,8.E1));
#243=LINE('',#242,#241);
#244=DIRECTION('',(0.E0,0.E0,1.E0));
#245=VECTOR('',#244,1.55E2);
#246=CARTESIAN_POINT('',(-6.15E1,1.05E2,-1.5E2));
#247=LINE('',#246,#245);
#248=DIRECTION('',(1.E0,0.E0,0.E0));
#249=VECTOR('',#248,1.5E1);
#250=CARTESIAN_POINT('',(-6.15E1,1.05E2,5.E0));
#251=LINE('',#250,#249);
#252=DIRECTION('',(0.E0,0.E0,-1.E0));
#253=VECTOR('',#252,1.55E2);
#254=CARTESIAN_POINT('',(-4.65E1,1.05E2,5.E0));
#255=LINE('',#254,#253);
#256=DIRECTION('',(-1.E0,0.E0,0.E0));
#257=VECTOR('',#256,1.5E1);
#258=CARTESIAN_POINT('',(-4.65E1,1.05E2,-1.5E2));
#259=LINE('',#258,#257);
#260=DIRECTION('',(1.E0,0.E0,0.E0));
#261=VECTOR('',#260,2.8E1);
#262=CARTESIAN_POINT('',(8.45E1,1.05E2,4.E1));
#263=LINE('',#262,#261);
#264=DIRECTION('',(0.E0,0.E0,-1.E0));
#265=VECTOR('',#264,2.E2);
#266=CARTESIAN_POINT('',(1.125E2,1.05E2,4.E1));
#267=LINE('',#266,#265);
#268=DIRECTION('',(-1.E0,0.E0,0.E0));
#269=VECTOR('',#268,2.8E1);
#270=CARTESIAN_POINT('',(1.125E2,1.05E2,-1.6E2));
#271=LINE('',#270,#269);
#272=DIRECTION('',(0.E0,0.E0,1.E0));
#273=VECTOR('',#272,2.E2);
#274=CARTESIAN_POINT('',(8.45E1,1.05E2,-1.6E2));
#275=LINE('',#274,#273);
#276=DIRECTION('',(0.E0,-1.E0,0.E0));
#277=VECTOR('',#276,9.5E1);
#278=CARTESIAN_POINT('',(2.165E2,1.05E2,-1.6E2));
#279=LINE('',#278,#277);
#280=DIRECTION('',(0.E0,-1.E0,0.E0));
#281=VECTOR('',#280,9.5E1);
#282=CARTESIAN_POINT('',(2.165E2,1.05E2,4.5E1));
#283=LINE('',#282,#281);
#284=DIRECTION('',(0.E0,-1.E0,0.E0));
#285=VECTOR('',#284,9.5E1);
#286=CARTESIAN_POINT('',(1.545E2,1.05E2,4.5E1));
#287=LINE('',#286,#285);
#288=DIRECTION('',(0.E0,-1.E0,0.E0));
#289=VECTOR('',#288,9.5E1);
#290=CARTESIAN_POINT('',(1.545E2,1.05E2,-1.6E2));
#291=LINE('',#290,#289);
#292=DIRECTION('',(-1.E0,0.E0,0.E0));
#293=VECTOR('',#292,6.2E1);
#294=CARTESIAN_POINT('',(2.165E2,1.E1,-1.6E2));
#295=LINE('',#294,#293);
#296=DIRECTION('',(0.E0,0.E0,-1.E0));
#297=VECTOR('',#296,2.05E2);
#298=CARTESIAN_POINT('',(2.165E2,1.E1,4.5E1));
#299=LINE('',#298,#297);
#300=DIRECTION('',(1.E0,0.E0,0.E0));
#301=VECTOR('',#300,6.2E1);
#302=CARTESIAN_POINT('',(1.545E2,1.E1,4.5E1));
#303=LINE('',#302,#301);
#304=DIRECTION('',(0.E0,0.E0,1.E0));
#305=VECTOR('',#304,2.05E2);
#306=CARTESIAN_POINT('',(1.545E2,1.E1,-1.6E2));
#307=LINE('',#306,#305);
#308=DIRECTION('',(0.E0,-1.E0,0.E0));
#309=VECTOR('',#308,6.24E1);
#310=CARTESIAN_POINT('',(-6.15E1,1.05E2,1.6E2));
#311=LINE('',#310,#309);
#312=DIRECTION('',(0.E0,-1.E0,0.E0));
#313=VECTOR('',#312,6.24E1);
#314=CARTESIAN_POINT('',(-6.15E1,1.05E2,9.7E1));
#315=LINE('',#314,#313);
#316=DIRECTION('',(0.E0,-1.E0,0.E0));
#317=VECTOR('',#316,6.24E1);
#318=CARTESIAN_POINT('',(-2.82E1,1.05E2,9.7E1));
#319=LINE('',#318,#317);
#320=DIRECTION('',(0.E0,-1.E0,0.E0));
#321=VECTOR('',#320,6.24E1);
#322=CARTESIAN_POINT('',(-2.82E1,1.05E2,1.6E2));
#323=LINE('',#322,#321);
#324=DIRECTION('',(1.E0,0.E0,0.E0));
#325=VECTOR('',#324,3.33E1);
#326=CARTESIAN_POINT('',(-6.15E1,4.26E1,1.6E2));
#327=LINE('',#326,#325);
#328=DIRECTION('',(0.E0,0.E0,1.E0));
#329=VECTOR('',#328,6.3E1);
#330=CARTESIAN_POINT('',(-6.15E1,4.26E1,9.7E1));
#331=LINE('',#330,#329);
#332=DIRECTION('',(-1.E0,0.E0,0.E0));
#333=VECTOR('',#332,3.33E1);
#334=CARTESIAN_POINT('',(-2.82E1,4.26E1,9.7E1));
#335=LINE('',#334,#333);
#336=DIRECTION('',(0.E0,0.E0,-1.E0));
#337=VECTOR('',#336,6.3E1);
#338=CARTESIAN_POINT('',(-2.82E1,4.26E1,1.6E2));
#339=LINE('',#338,#337);
#340=DIRECTION('',(0.E0,-1.E0,0.E0));
#341=VECTOR('',#340,7.E1);
#342=CARTESIAN_POINT('',(1.193961049584E2,1.05E2,1.261545391916E2));
#343=LINE('',#342,#341);
#344=DIRECTION('',(0.E0,-1.E0,0.E0));
#345=VECTOR('',#344,7.E1);
#346=CARTESIAN_POINT('',(1.493961049584E2,1.05E2,1.261545391916E2));
#347=LINE('',#346,#345);
#348=DIRECTION('',(0.E0,-1.E0,0.E0));
#349=VECTOR('',#348,7.E1);
#350=CARTESIAN_POINT('',(1.493961049584E2,1.05E2,1.411545391916E2));
#351=LINE('',#350,#349);
#352=DIRECTION('',(0.E0,-1.E0,0.E0));
#353=VECTOR('',#352,7.E1);
#354=CARTESIAN_POINT('',(1.193961049584E2,1.05E2,1.411545391916E2));
#355=LINE('',#354,#353);
#356=DIRECTION('',(0.E0,0.E0,1.E0));
#357=VECTOR('',#356,1.5E1);
#358=CARTESIAN_POINT('',(1.193961049584E2,3.5E1,1.261545391916E2));
#359=LINE('',#358,#357);
#360=DIRECTION('',(-1.E0,0.E0,0.E0));
#361=VECTOR('',#360,3.E1);
#362=CARTESIAN_POINT('',(1.493961049584E2,3.5E1,1.261545391916E2));
#363=LINE('',#362,#361);
#364=DIRECTION('',(0.E0,0.E0,-1.E0));
#365=VECTOR('',#364,1.5E1);
#366=CARTESIAN_POINT('',(1.493961049584E2,3.5E1,1.411545391916E2));
#367=LINE('',#366,#365);
#368=DIRECTION('',(1.E0,0.E0,0.E0));
#369=VECTOR('',#368,3.E1);
#370=CARTESIAN_POINT('',(1.193961049584E2,3.5E1,1.411545391916E2));
#371=LINE('',#370,#369);
#372=DIRECTION('',(0.E0,-1.E0,0.E0));
#373=VECTOR('',#372,9.8E1);
#374=CARTESIAN_POINT('',(2.162348609287E2,1.05E2,1.45E2));
#375=LINE('',#374,#373);
#376=DIRECTION('',(0.E0,-1.E0,0.E0));
#377=VECTOR('',#376,9.8E1);
#378=CARTESIAN_POINT('',(1.862348609287E2,1.05E2,1.45E2));
#379=LINE('',#378,#377);
#380=CARTESIAN_POINT('',(2.012348609287E2,7.E0,1.45E2));
#381=DIRECTION('',(0.E0,1.E0,0.E0));
#382=DIRECTION('',(1.E0,0.E0,0.E0));
#383=AXIS2_PLACEMENT_3D('',#380,#381,#382);
#385=CARTESIAN_POINT('',(2.012348609287E2,7.E0,1.45E2));
#386=DIRECTION('',(0.E0,1.E0,0.E0));
#387=DIRECTION('',(-1.E0,0.E0,0.E0));
#388=AXIS2_PLACEMENT_3D('',#385,#386,#387);
#390=DIRECTION('',(0.E0,-1.E0,0.E0));
#391=VECTOR('',#390,8.5E1);
#392=CARTESIAN_POINT('',(1.623827806794E2,1.05E2,8.487787071514E1));
#393=LINE('',#392,#391);
#394=DIRECTION('',(0.E0,-1.E0,0.E0));
#395=VECTOR('',#394,8.5E1);
#396=CARTESIAN_POINT('',(1.735827806794E2,1.05E2,8.487787071514E1));
#397=LINE('',#396,#395);
#398=DIRECTION('',(0.E0,-1.E0,0.E0));
#399=VECTOR('',#398,8.5E1);
#400=CARTESIAN_POINT('',(1.735827806794E2,1.05E2,1.061778707151E2));
#401=LINE('',#400,#399);
#402=DIRECTION('',(0.E0,-1.E0,0.E0));
#403=VECTOR('',#402,8.5E1);
#404=CARTESIAN_POINT('',(1.623827806794E2,1.05E2,1.061778707151E2));
#405=LINE('',#404,#403);
#406=DIRECTION('',(0.E0,0.E0,1.E0));
#407=VECTOR('',#406,2.13E1);
#408=CARTESIAN_POINT('',(1.623827806794E2,2.E1,8.487787071514E1));
#409=LINE('',#408,#407);
#410=DIRECTION('',(-1.E0,0.E0,0.E0));
#411=VECTOR('',#410,1.12E1);
#412=CARTESIAN_POINT('',(1.735827806794E2,2.E1,8.487787071514E1));
#413=LINE('',#412,#411);
#414=DIRECTION('',(0.E0,0.E0,-1.E0));
#415=VECTOR('',#414,2.13E1);
#416=CARTESIAN_POINT('',(1.735827806794E2,2.E1,1.061778707151E2));
#417=LINE('',#416,#415);
#418=DIRECTION('',(1.E0,0.E0,0.E0));
#419=VECTOR('',#418,1.12E1);
#420=CARTESIAN_POINT('',(1.623827806794E2,2.E1,1.061778707151E2));
#421=LINE('',#420,#419);
#422=DIRECTION('',(0.E0,-1.E0,0.E0));
#423=VECTOR('',#422,2.7E1);
#424=CARTESIAN_POINT('',(5.95E1,1.05E2,-1.6E2));
#425=LINE('',#424,#423);
#426=DIRECTION('',(0.E0,-1.E0,0.E0));
#427=VECTOR('',#426,2.7E1);
#428=CARTESIAN_POINT('',(7.45E1,1.05E2,-1.6E2));
#429=LINE('',#428,#427);
#430=DIRECTION('',(0.E0,-1.E0,0.E0));
#431=VECTOR('',#430,2.7E1);
#432=CARTESIAN_POINT('',(7.45E1,1.05E2,7.E1));
#433=LINE('',#432,#431);
#434=DIRECTION('',(0.E0,-1.E0,0.E0));
#435=VECTOR('',#434,2.7E1);
#436=CARTESIAN_POINT('',(5.95E1,1.05E2,7.E1));
#437=LINE('',#436,#435);
#438=DIRECTION('',(0.E0,0.E0,1.E0));
#439=VECTOR('',#438,2.3E2);
#440=CARTESIAN_POINT('',(5.95E1,7.8E1,-1.6E2));
#441=LINE('',#440,#439);
#442=DIRECTION('',(-1.E0,0.E0,0.E0));
#443=VECTOR('',#442,1.5E1);
#444=CARTESIAN_POINT('',(7.45E1,7.8E1,-1.6E2));
#445=LINE('',#444,#443);
#446=DIRECTION('',(0.E0,0.E0,-1.E0));
#447=VECTOR('',#446,2.3E2);
#448=CARTESIAN_POINT('',(7.45E1,7.8E1,7.E1));
#449=LINE('',#448,#447);
#450=DIRECTION('',(1.E0,0.E0,0.E0));
#451=VECTOR('',#450,1.5E1);
#452=CARTESIAN_POINT('',(5.95E1,7.8E1,7.E1));
#453=LINE('',#452,#451);
#454=DIRECTION('',(0.E0,-1.E0,0.E0));
#455=VECTOR('',#454,9.2E1);
#456=CARTESIAN_POINT('',(1.44E2,1.05E2,-1.6E2));
#457=LINE('',#456,#455);
#458=DIRECTION('',(0.E0,-1.E0,0.E0));
#459=VECTOR('',#458,9.2E1);
#460=CARTESIAN_POINT('',(1.44E2,1.05E2,1.E2));
#461=LINE('',#460,#459);
#462=DIRECTION('',(0.E0,-1.E0,0.E0));
#463=VECTOR('',#462,9.2E1);
#464=CARTESIAN_POINT('',(1.225E2,1.05E2,1.E2));
#465=LINE('',#464,#463);
#466=DIRECTION('',(0.E0,-1.E0,0.E0));
#467=VECTOR('',#466,9.2E1);
#468=CARTESIAN_POINT('',(1.225E2,1.05E2,-1.6E2));
#469=LINE('',#468,#467);
#470=DIRECTION('',(-1.E0,0.E0,0.E0));
#471=VECTOR('',#470,2.15E1);
#472=CARTESIAN_POINT('',(1.44E2,1.3E1,-1.6E2));
#473=LINE('',#472,#471);
#474=DIRECTION('',(0.E0,0.E0,-1.E0));
#475=VECTOR('',#474,2.6E2);
#476=CARTESIAN_POINT('',(1.44E2,1.3E1,1.E2));
#477=LINE('',#476,#475);
#478=DIRECTION('',(1.E0,0.E0,0.E0));
#479=VECTOR('',#478,2.15E1);
#480=CARTESIAN_POINT('',(1.225E2,1.3E1,1.E2));
#481=LINE('',#480,#479);
#482=DIRECTION('',(0.E0,0.E0,1.E0));
#483=VECTOR('',#482,2.6E2);
#484=CARTESIAN_POINT('',(1.225E2,1.3E1,-1.6E2));
#485=LINE('',#484,#483);
#486=DIRECTION('',(0.E0,0.E0,-1.E0));
#487=VECTOR('',#486,1.55E2);
#488=CARTESIAN_POINT('',(-1.105E2,9.5E1,5.E0));
#489=LINE('',#488,#487);
#490=DIRECTION('',(0.E0,-1.E0,0.E0));
#491=VECTOR('',#490,1.E1);
#492=CARTESIAN_POINT('',(-1.105E2,1.05E2,5.E0));
#493=LINE('',#492,#491);
#494=DIRECTION('',(0.E0,-1.E0,0.E0));
#495=VECTOR('',#494,6.5E1);
#496=CARTESIAN_POINT('',(-1.105E2,1.05E2,4.E1));
#497=LINE('',#496,#495);
#498=DIRECTION('',(-1.E0,0.E0,0.E0));
#499=VECTOR('',#498,3.4E1);
#500=CARTESIAN_POINT('',(-7.65E1,9.5E1,-1.5E2));
#501=LINE('',#500,#499);
#502=DIRECTION('',(0.E0,0.E0,1.E0));
#503=VECTOR('',#502,1.55E2);
#504=CARTESIAN_POINT('',(-7.65E1,9.5E1,-1.5E2));
#505=LINE('',#504,#503);
#506=DIRECTION('',(1.E0,0.E0,0.E0));
#507=VECTOR('',#506,3.4E1);
#508=CARTESIAN_POINT('',(-1.105E2,9.5E1,5.E0));
#509=LINE('',#508,#507);
#510=DIRECTION('',(1.E0,0.E0,0.E0));
#511=VECTOR('',#510,1.3E2);
#512=CARTESIAN_POINT('',(-2.065E2,1.05E2,-1.5E2));
#513=LINE('',#512,#511);
#514=DIRECTION('',(0.E0,-1.E0,0.E0));
#515=VECTOR('',#514,1.E1);
#516=CARTESIAN_POINT('',(-7.65E1,1.05E2,-1.5E2));
#517=LINE('',#516,#515);
#518=DIRECTION('',(0.E0,-1.E0,0.E0));
#519=VECTOR('',#518,5.5E1);
#520=CARTESIAN_POINT('',(-1.105E2,9.5E1,-1.5E2));
#521=LINE('',#520,#519);
#522=DIRECTION('',(0.E0,-1.E0,0.E0));
#523=VECTOR('',#522,1.E1);
#524=CARTESIAN_POINT('',(-7.65E1,1.05E2,5.E0));
#525=LINE('',#524,#523);
#526=DIRECTION('',(0.E0,0.E0,1.E0));
#527=VECTOR('',#526,1.9E2);
#528=CARTESIAN_POINT('',(-2.065E2,4.E1,-1.5E2));
#529=LINE('',#528,#527);
#530=DIRECTION('',(-1.E0,0.E0,0.E0));
#531=VECTOR('',#530,9.6E1);
#532=CARTESIAN_POINT('',(-1.105E2,4.E1,-1.5E2));
#533=LINE('',#532,#531);
#534=DIRECTION('',(0.E0,0.E0,-1.E0));
#535=VECTOR('',#534,1.9E2);
#536=CARTESIAN_POINT('',(-1.105E2,4.E1,4.E1));
#537=LINE('',#536,#535);
#538=DIRECTION('',(1.E0,0.E0,0.E0));
#539=VECTOR('',#538,9.6E1);
#540=CARTESIAN_POINT('',(-2.065E2,4.E1,4.E1));
#541=LINE('',#540,#539);
#542=DIRECTION('',(0.E0,-1.E0,0.E0));
#543=VECTOR('',#542,6.5E1);
#544=CARTESIAN_POINT('',(-2.065E2,1.05E2,-1.5E2));
#545=LINE('',#544,#543);
#546=DIRECTION('',(0.E0,-1.E0,0.E0));
#547=VECTOR('',#546,6.5E1);
#548=CARTESIAN_POINT('',(-2.065E2,1.05E2,4.E1));
#549=LINE('',#548,#547);
#550=DIRECTION('',(0.E0,-1.E0,0.E0));
#551=VECTOR('',#550,8.1E1);
#552=CARTESIAN_POINT('',(-3.15E1,1.05E2,-1.5E2));
#553=LINE('',#552,#551);
#554=DIRECTION('',(0.E0,-1.E0,0.E0));
#555=VECTOR('',#554,8.1E1);
#556=CARTESIAN_POINT('',(3.95E1,1.05E2,-1.5E2));
#557=LINE('',#556,#555);
#558=DIRECTION('',(0.E0,-1.E0,0.E0));
#559=VECTOR('',#558,8.1E1);
#560=CARTESIAN_POINT('',(3.95E1,1.05E2,1.E1));
#561=LINE('',#560,#559);
#562=DIRECTION('',(0.E0,-1.E0,0.E0));
#563=VECTOR('',#562,8.1E1);
#564=CARTESIAN_POINT('',(-3.15E1,1.05E2,1.E1));
#565=LINE('',#564,#563);
#566=DIRECTION('',(0.E0,0.E0,1.E0));
#567=VECTOR('',#566,1.6E2);
#568=CARTESIAN_POINT('',(-3.15E1,2.4E1,-1.5E2));
#569=LINE('',#568,#567);
#570=DIRECTION('',(-1.E0,0.E0,0.E0));
#571=VECTOR('',#570,7.1E1);
#572=CARTESIAN_POINT('',(3.95E1,2.4E1,-1.5E2));
#573=LINE('',#572,#571);
#574=DIRECTION('',(0.E0,0.E0,-1.E0));
#575=VECTOR('',#574,1.6E2);
#576=CARTESIAN_POINT('',(3.95E1,2.4E1,1.E1));
#577=LINE('',#576,#575);
#578=DIRECTION('',(1.E0,0.E0,0.E0));
#579=VECTOR('',#578,7.1E1);
#580=CARTESIAN_POINT('',(-3.15E1,2.4E1,1.E1));
#581=LINE('',#580,#579);
#582=DIRECTION('',(0.E0,-1.E0,0.E0));
#583=VECTOR('',#582,7.E1);
#584=CARTESIAN_POINT('',(-1.32E1,1.05E2,8.E1));
#585=LINE('',#584,#583);
#586=DIRECTION('',(0.E0,-1.E0,0.E0));
#587=VECTOR('',#586,7.E1);
#588=CARTESIAN_POINT('',(1.068E2,1.05E2,8.E1));
#589=LINE('',#588,#587);
#590=DIRECTION('',(0.E0,-1.E0,0.E0));
#591=VECTOR('',#590,7.E1);
#592=CARTESIAN_POINT('',(1.068E2,1.05E2,1.6E2));
#593=LINE('',#592,#591);
#594=DIRECTION('',(0.E0,-1.E0,0.E0));
#595=VECTOR('',#594,7.E1);
#596=CARTESIAN_POINT('',(-1.32E1,1.05E2,1.6E2));
#597=LINE('',#596,#595);
#598=DIRECTION('',(0.E0,0.E0,1.E0));
#599=VECTOR('',#598,8.E1);
#600=CARTESIAN_POINT('',(-1.32E1,3.5E1,8.E1));
#601=LINE('',#600,#599);
#602=DIRECTION('',(-1.E0,0.E0,0.E0));
#603=VECTOR('',#602,1.2E2);
#604=CARTESIAN_POINT('',(1.068E2,3.5E1,8.E1));
#605=LINE('',#604,#603);
#606=DIRECTION('',(0.E0,0.E0,-1.E0));
#607=VECTOR('',#606,8.E1);
#608=CARTESIAN_POINT('',(1.068E2,3.5E1,1.6E2));
#609=LINE('',#608,#607);
#610=DIRECTION('',(1.E0,0.E0,0.E0));
#611=VECTOR('',#610,1.2E2);
#612=CARTESIAN_POINT('',(-1.32E1,3.5E1,1.6E2));
#613=LINE('',#612,#611);
#614=DIRECTION('',(0.E0,-1.E0,0.E0));
#615=VECTOR('',#614,9.8E1);
#616=CARTESIAN_POINT('',(2.162348609287E2,1.05E2,1.E2));
#617=LINE('',#616,#615);
#618=DIRECTION('',(0.E0,-1.E0,0.E0));
#619=VECTOR('',#618,9.8E1);
#620=CARTESIAN_POINT('',(1.862348609287E2,1.05E2,1.E2));
#621=LINE('',#620,#619);
#622=CARTESIAN_POINT('',(2.012348609287E2,7.E0,1.E2));
#623=DIRECTION('',(0.E0,1.E0,0.E0));
#624=DIRECTION('',(1.E0,0.E0,0.E0));
#625=AXIS2_PLACEMENT_3D('',#622,#623,#624);
#627=CARTESIAN_POINT('',(2.012348609287E2,7.E0,1.E2));
#628=DIRECTION('',(0.E0,1.E0,0.E0));
#629=DIRECTION('',(-1.E0,0.E0,0.E0));
#630=AXIS2_PLACEMENT_3D('',#627,#628,#629);
#632=DIRECTION('',(0.E0,-1.E0,0.E0));
#633=VECTOR('',#632,7.25E1);
#634=CARTESIAN_POINT('',(-2.586114227287E1,1.05E2,4.622196520936E1));
#635=LINE('',#634,#633);
#636=DIRECTION('',(0.E0,-1.E0,0.E0));
#637=VECTOR('',#636,7.25E1);
#638=CARTESIAN_POINT('',(-8.586114227287E1,1.05E2,4.622196520936E1));
#639=LINE('',#638,#637);
#640=CARTESIAN_POINT('',(-5.586114227287E1,3.25E1,4.622196520936E1));
#641=DIRECTION('',(0.E0,1.E0,0.E0));
#642=DIRECTION('',(1.E0,0.E0,0.E0));
#643=AXIS2_PLACEMENT_3D('',#640,#641,#642);
#645=CARTESIAN_POINT('',(-5.586114227287E1,3.25E1,4.622196520936E1));
#646=DIRECTION('',(0.E0,1.E0,0.E0));
#647=DIRECTION('',(-1.E0,0.E0,0.E0));
#648=AXIS2_PLACEMENT_3D('',#645,#646,#647);
#650=DIRECTION('',(0.E0,-1.E0,0.E0));
#651=VECTOR('',#650,5.E1);
#652=CARTESIAN_POINT('',(-2.165E2,1.05E2,8.E1));
#653=LINE('',#652,#651);
#654=DIRECTION('',(0.E0,-1.E0,0.E0));
#655=VECTOR('',#654,5.E1);
#656=CARTESIAN_POINT('',(-7.65E1,1.05E2,8.E1));
#657=LINE('',#656,#655);
#658=DIRECTION('',(0.E0,-1.E0,0.E0));
#659=VECTOR('',#658,5.E1);
#660=CARTESIAN_POINT('',(-7.65E1,1.05E2,1.6E2));
#661=LINE('',#660,#659);
#662=DIRECTION('',(0.E0,-1.E0,0.E0));
#663=VECTOR('',#662,5.E1);
#664=CARTESIAN_POINT('',(-2.165E2,1.05E2,1.6E2));
#665=LINE('',#664,#663);
#666=DIRECTION('',(0.E0,0.E0,1.E0));
#667=VECTOR('',#666,8.E1);
#668=CARTESIAN_POINT('',(-2.165E2,5.5E1,8.E1));
#669=LINE('',#668,#667);
#670=DIRECTION('',(-1.E0,0.E0,0.E0));
#671=VECTOR('',#670,1.4E2);
#672=CARTESIAN_POINT('',(-7.65E1,5.5E1,8.E1));
#673=LINE('',#672,#671);
#674=DIRECTION('',(0.E0,0.E0,-1.E0));
#675=VECTOR('',#674,8.E1);
#676=CARTESIAN_POINT('',(-7.65E1,5.5E1,1.6E2));
#677=LINE('',#676,#675);
#678=DIRECTION('',(1.E0,0.E0,0.E0));
#679=VECTOR('',#678,1.4E2);
#680=CARTESIAN_POINT('',(-2.165E2,5.5E1,1.6E2));
#681=LINE('',#680,#679);
#682=DIRECTION('',(0.E0,-1.E0,0.E0));
#683=VECTOR('',#682,2.5E1);
#684=CARTESIAN_POINT('',(-6.15E1,1.05E2,-1.5E2));
#685=LINE('',#684,#683);
#686=DIRECTION('',(0.E0,-1.E0,0.E0));
#687=VECTOR('',#686,2.5E1);
#688=CARTESIAN_POINT('',(-4.65E1,1.05E2,-1.5E2));
#689=LINE('',#688,#687);
#690=DIRECTION('',(0.E0,-1.E0,0.E0));
#691=VECTOR('',#690,2.5E1);
#692=CARTESIAN_POINT('',(-4.65E1,1.05E2,5.E0));
#693=LINE('',#692,#691);
#694=DIRECTION('',(0.E0,-1.E0,0.E0));
#695=VECTOR('',#694,2.5E1);
#696=CARTESIAN_POINT('',(-6.15E1,1.05E2,5.E0));
#697=LINE('',#696,#695);
#698=DIRECTION('',(0.E0,0.E0,1.E0));
#699=VECTOR('',#698,1.55E2);
#700=CARTESIAN_POINT('',(-6.15E1,8.E1,-1.5E2));
#701=LINE('',#700,#699);
#702=DIRECTION('',(-1.E0,0.E0,0.E0));
#703=VECTOR('',#702,1.5E1);
#704=CARTESIAN_POINT('',(-4.65E1,8.E1,-1.5E2));
#705=LINE('',#704,#703);
#706=DIRECTION('',(0.E0,0.E0,-1.E0));
#707=VECTOR('',#706,1.55E2);
#708=CARTESIAN_POINT('',(-4.65E1,8.E1,5.E0));
#709=LINE('',#708,#707);
#710=DIRECTION('',(1.E0,0.E0,0.E0));
#711=VECTOR('',#710,1.5E1);
#712=CARTESIAN_POINT('',(-6.15E1,8.E1,5.E0));
#713=LINE('',#712,#711);
#714=DIRECTION('',(0.E0,-1.E0,0.E0));
#715=VECTOR('',#714,5.5E1);
#716=CARTESIAN_POINT('',(8.45E1,1.05E2,4.E1));
#717=LINE('',#716,#715);
#718=DIRECTION('',(0.E0,-1.E0,0.E0));
#719=VECTOR('',#718,5.5E1);
#720=CARTESIAN_POINT('',(8.45E1,1.05E2,-1.6E2));
#721=LINE('',#720,#719);
#722=DIRECTION('',(0.E0,-1.E0,0.E0));
#723=VECTOR('',#722,5.5E1);
#724=CARTESIAN_POINT('',(1.125E2,1.05E2,-1.6E2));
#725=LINE('',#724,#723);
#726=DIRECTION('',(0.E0,-1.E0,0.E0));
#727=VECTOR('',#726,5.5E1);
#728=CARTESIAN_POINT('',(1.125E2,1.05E2,4.E1));
#729=LINE('',#728,#727);
#730=DIRECTION('',(1.E0,0.E0,0.E0));
#731=VECTOR('',#730,2.8E1);
#732=CARTESIAN_POINT('',(8.45E1,5.E1,4.E1));
#733=LINE('',#732,#731);
#734=DIRECTION('',(0.E0,0.E0,1.E0));
#735=VECTOR('',#734,2.E2);
#736=CARTESIAN_POINT('',(8.45E1,5.E1,-1.6E2));
#737=LINE('',#736,#735);
#738=DIRECTION('',(-1.E0,0.E0,0.E0));
#739=VECTOR('',#738,2.8E1);
#740=CARTESIAN_POINT('',(1.125E2,5.E1,-1.6E2));
#741=LINE('',#740,#739);
#742=DIRECTION('',(0.E0,0.E0,-1.E0));
#743=VECTOR('',#742,2.E2);
#744=CARTESIAN_POINT('',(1.125E2,5.E1,4.E1));
#745=LINE('',#744,#743);
#746=CARTESIAN_POINT('',(-2.315E2,0.E0,1.75E2));
#747=CARTESIAN_POINT('',(2.315E2,0.E0,1.75E2));
#748=VERTEX_POINT('',#746);
#749=VERTEX_POINT('',#747);
#750=CARTESIAN_POINT('',(2.315E2,0.E0,-1.75E2));
#751=VERTEX_POINT('',#750);
#752=CARTESIAN_POINT('',(-2.315E2,0.E0,-1.75E2));
#753=VERTEX_POINT('',#752);
#754=CARTESIAN_POINT('',(-2.315E2,1.05E2,1.75E2));
#755=CARTESIAN_POINT('',(2.315E2,1.05E2,1.75E2));
#756=VERTEX_POINT('',#754);
#757=VERTEX_POINT('',#755);
#758=CARTESIAN_POINT('',(2.315E2,1.05E2,-1.75E2));
#759=VERTEX_POINT('',#758);
#760=CARTESIAN_POINT('',(-2.315E2,1.05E2,-1.75E2));
#761=VERTEX_POINT('',#760);
#762=CARTESIAN_POINT('',(2.165E2,1.E1,-1.6E2));
#763=CARTESIAN_POINT('',(1.545E2,1.E1,-1.6E2));
#764=VERTEX_POINT('',#762);
#765=VERTEX_POINT('',#763);
#766=CARTESIAN_POINT('',(1.545E2,1.E1,4.5E1));
#767=VERTEX_POINT('',#766);
#768=CARTESIAN_POINT('',(2.165E2,1.E1,4.5E1));
#769=VERTEX_POINT('',#768);
#770=CARTESIAN_POINT('',(2.165E2,1.05E2,-1.6E2));
#771=CARTESIAN_POINT('',(1.545E2,1.05E2,-1.6E2));
#772=VERTEX_POINT('',#770);
#773=VERTEX_POINT('',#771);
#774=CARTESIAN_POINT('',(1.545E2,1.05E2,4.5E1));
#775=VERTEX_POINT('',#774);
#776=CARTESIAN_POINT('',(2.165E2,1.05E2,4.5E1));
#777=VERTEX_POINT('',#776);
#778=CARTESIAN_POINT('',(-6.15E1,4.26E1,1.6E2));
#779=CARTESIAN_POINT('',(-2.82E1,4.26E1,1.6E2));
#780=VERTEX_POINT('',#778);
#781=VERTEX_POINT('',#779);
#782=CARTESIAN_POINT('',(-2.82E1,4.26E1,9.7E1));
#783=VERTEX_POINT('',#782);
#784=CARTESIAN_POINT('',(-6.15E1,4.26E1,9.7E1));
#785=VERTEX_POINT('',#784);
#786=CARTESIAN_POINT('',(-6.15E1,1.05E2,1.6E2));
#787=CARTESIAN_POINT('',(-2.82E1,1.05E2,1.6E2));
#788=VERTEX_POINT('',#786);
#789=VERTEX_POINT('',#787);
#790=CARTESIAN_POINT('',(-2.82E1,1.05E2,9.7E1));
#791=VERTEX_POINT('',#790);
#792=CARTESIAN_POINT('',(-6.15E1,1.05E2,9.7E1));
#793=VERTEX_POINT('',#792);
#794=CARTESIAN_POINT('',(1.193961049584E2,3.5E1,1.261545391916E2));
#795=CARTESIAN_POINT('',(1.193961049584E2,3.5E1,1.411545391916E2));
#796=VERTEX_POINT('',#794);
#797=VERTEX_POINT('',#795);
#798=CARTESIAN_POINT('',(1.493961049584E2,3.5E1,1.411545391916E2));
#799=VERTEX_POINT('',#798);
#800=CARTESIAN_POINT('',(1.493961049584E2,3.5E1,1.261545391916E2));
#801=VERTEX_POINT('',#800);
#802=CARTESIAN_POINT('',(1.193961049584E2,1.05E2,1.261545391916E2));
#803=CARTESIAN_POINT('',(1.193961049584E2,1.05E2,1.411545391916E2));
#804=VERTEX_POINT('',#802);
#805=VERTEX_POINT('',#803);
#806=CARTESIAN_POINT('',(1.493961049584E2,1.05E2,1.411545391916E2));
#807=VERTEX_POINT('',#806);
#808=CARTESIAN_POINT('',(1.493961049584E2,1.05E2,1.261545391916E2));
#809=VERTEX_POINT('',#808);
#810=CARTESIAN_POINT('',(2.162348609287E2,7.E0,1.45E2));
#811=CARTESIAN_POINT('',(1.862348609287E2,7.E0,1.45E2));
#812=VERTEX_POINT('',#810);
#813=VERTEX_POINT('',#811);
#814=CARTESIAN_POINT('',(2.162348609287E2,1.05E2,1.45E2));
#815=CARTESIAN_POINT('',(1.862348609287E2,1.05E2,1.45E2));
#816=VERTEX_POINT('',#814);
#817=VERTEX_POINT('',#815);
#818=CARTESIAN_POINT('',(1.623827806794E2,2.E1,8.487787071514E1));
#819=CARTESIAN_POINT('',(1.623827806794E2,2.E1,1.061778707151E2));
#820=VERTEX_POINT('',#818);
#821=VERTEX_POINT('',#819);
#822=CARTESIAN_POINT('',(1.735827806794E2,2.E1,1.061778707151E2));
#823=VERTEX_POINT('',#822);
#824=CARTESIAN_POINT('',(1.735827806794E2,2.E1,8.487787071514E1));
#825=VERTEX_POINT('',#824);
#826=CARTESIAN_POINT('',(1.623827806794E2,1.05E2,8.487787071514E1));
#827=CARTESIAN_POINT('',(1.623827806794E2,1.05E2,1.061778707151E2));
#828=VERTEX_POINT('',#826);
#829=VERTEX_POINT('',#827);
#830=CARTESIAN_POINT('',(1.735827806794E2,1.05E2,1.061778707151E2));
#831=VERTEX_POINT('',#830);
#832=CARTESIAN_POINT('',(1.735827806794E2,1.05E2,8.487787071514E1));
#833=VERTEX_POINT('',#832);
#834=CARTESIAN_POINT('',(5.95E1,7.8E1,-1.6E2));
#835=CARTESIAN_POINT('',(5.95E1,7.8E1,7.E1));
#836=VERTEX_POINT('',#834);
#837=VERTEX_POINT('',#835);
#838=CARTESIAN_POINT('',(7.45E1,7.8E1,7.E1));
#839=VERTEX_POINT('',#838);
#840=CARTESIAN_POINT('',(7.45E1,7.8E1,-1.6E2));
#841=VERTEX_POINT('',#840);
#842=CARTESIAN_POINT('',(5.95E1,1.05E2,-1.6E2));
#843=CARTESIAN_POINT('',(5.95E1,1.05E2,7.E1));
#844=VERTEX_POINT('',#842);
#845=VERTEX_POINT('',#843);
#846=CARTESIAN_POINT('',(7.45E1,1.05E2,7.E1));
#847=VERTEX_POINT('',#846);
#848=CARTESIAN_POINT('',(7.45E1,1.05E2,-1.6E2));
#849=VERTEX_POINT('',#848);
#850=CARTESIAN_POINT('',(1.44E2,1.3E1,-1.6E2));
#851=CARTESIAN_POINT('',(1.225E2,1.3E1,-1.6E2));
#852=VERTEX_POINT('',#850);
#853=VERTEX_POINT('',#851);
#854=CARTESIAN_POINT('',(1.225E2,1.3E1,1.E2));
#855=VERTEX_POINT('',#854);
#856=CARTESIAN_POINT('',(1.44E2,1.3E1,1.E2));
#857=VERTEX_POINT('',#856);
#858=CARTESIAN_POINT('',(1.44E2,1.05E2,-1.6E2));
#859=CARTESIAN_POINT('',(1.225E2,1.05E2,-1.6E2));
#860=VERTEX_POINT('',#858);
#861=VERTEX_POINT('',#859);
#862=CARTESIAN_POINT('',(1.225E2,1.05E2,1.E2));
#863=VERTEX_POINT('',#862);
#864=CARTESIAN_POINT('',(1.44E2,1.05E2,1.E2));
#865=VERTEX_POINT('',#864);
#866=CARTESIAN_POINT('',(-2.065E2,4.E1,-1.5E2));
#867=CARTESIAN_POINT('',(-2.065E2,4.E1,4.E1));
#868=VERTEX_POINT('',#866);
#869=VERTEX_POINT('',#867);
#870=CARTESIAN_POINT('',(-1.105E2,4.E1,4.E1));
#871=VERTEX_POINT('',#870);
#872=CARTESIAN_POINT('',(-1.105E2,4.E1,-1.5E2));
#873=VERTEX_POINT('',#872);
#874=CARTESIAN_POINT('',(-2.065E2,1.05E2,-1.5E2));
#875=CARTESIAN_POINT('',(-2.065E2,1.05E2,4.E1));
#876=VERTEX_POINT('',#874);
#877=VERTEX_POINT('',#875);
#878=CARTESIAN_POINT('',(-1.105E2,1.05E2,4.E1));
#879=VERTEX_POINT('',#878);
#880=CARTESIAN_POINT('',(-7.65E1,9.5E1,-1.5E2));
#881=CARTESIAN_POINT('',(-7.65E1,9.5E1,5.E0));
#882=VERTEX_POINT('',#880);
#883=VERTEX_POINT('',#881);
#884=CARTESIAN_POINT('',(-1.105E2,9.5E1,5.E0));
#885=CARTESIAN_POINT('',(-1.105E2,9.5E1,-1.5E2));
#886=VERTEX_POINT('',#884);
#887=VERTEX_POINT('',#885);
#888=CARTESIAN_POINT('',(-1.105E2,1.05E2,5.E0));
#889=CARTESIAN_POINT('',(-7.65E1,1.05E2,5.E0));
#890=VERTEX_POINT('',#888);
#891=VERTEX_POINT('',#889);
#892=CARTESIAN_POINT('',(-7.65E1,1.05E2,-1.5E2));
#893=VERTEX_POINT('',#892);
#894=CARTESIAN_POINT('',(-3.15E1,2.4E1,-1.5E2));
#895=CARTESIAN_POINT('',(-3.15E1,2.4E1,1.E1));
#896=VERTEX_POINT('',#894);
#897=VERTEX_POINT('',#895);
#898=CARTESIAN_POINT('',(3.95E1,2.4E1,1.E1));
#899=VERTEX_POINT('',#898);
#900=CARTESIAN_POINT('',(3.95E1,2.4E1,-1.5E2));
#901=VERTEX_POINT('',#900);
#902=CARTESIAN_POINT('',(-3.15E1,1.05E2,-1.5E2));
#903=CARTESIAN_POINT('',(-3.15E1,1.05E2,1.E1));
#904=VERTEX_POINT('',#902);
#905=VERTEX_POINT('',#903);
#906=CARTESIAN_POINT('',(3.95E1,1.05E2,1.E1));
#907=VERTEX_POINT('',#906);
#908=CARTESIAN_POINT('',(3.95E1,1.05E2,-1.5E2));
#909=VERTEX_POINT('',#908);
#910=CARTESIAN_POINT('',(-1.32E1,3.5E1,8.E1));
#911=CARTESIAN_POINT('',(-1.32E1,3.5E1,1.6E2));
#912=VERTEX_POINT('',#910);
#913=VERTEX_POINT('',#911);
#914=CARTESIAN_POINT('',(1.068E2,3.5E1,1.6E2));
#915=VERTEX_POINT('',#914);
#916=CARTESIAN_POINT('',(1.068E2,3.5E1,8.E1));
#917=VERTEX_POINT('',#916);
#918=CARTESIAN_POINT('',(-1.32E1,1.05E2,8.E1));
#919=CARTESIAN_POINT('',(-1.32E1,1.05E2,1.6E2));
#920=VERTEX_POINT('',#918);
#921=VERTEX_POINT('',#919);
#922=CARTESIAN_POINT('',(1.068E2,1.05E2,1.6E2));
#923=VERTEX_POINT('',#922);
#924=CARTESIAN_POINT('',(1.068E2,1.05E2,8.E1));
#925=VERTEX_POINT('',#924);
#926=CARTESIAN_POINT('',(2.162348609287E2,7.E0,1.E2));
#927=CARTESIAN_POINT('',(1.862348609287E2,7.E0,1.E2));
#928=VERTEX_POINT('',#926);
#929=VERTEX_POINT('',#927);
#930=CARTESIAN_POINT('',(2.162348609287E2,1.05E2,1.E2));
#931=CARTESIAN_POINT('',(1.862348609287E2,1.05E2,1.E2));
#932=VERTEX_POINT('',#930);
#933=VERTEX_POINT('',#931);
#934=CARTESIAN_POINT('',(-2.586114227287E1,3.25E1,4.622196520936E1));
#935=CARTESIAN_POINT('',(-8.586114227287E1,3.25E1,4.622196520936E1));
#936=VERTEX_POINT('',#934);
#937=VERTEX_POINT('',#935);
#938=CARTESIAN_POINT('',(-2.586114227287E1,1.05E2,4.622196520936E1));
#939=CARTESIAN_POINT('',(-8.586114227287E1,1.05E2,4.622196520936E1));
#940=VERTEX_POINT('',#938);
#941=VERTEX_POINT('',#939);
#942=CARTESIAN_POINT('',(-2.165E2,5.5E1,8.E1));
#943=CARTESIAN_POINT('',(-2.165E2,5.5E1,1.6E2));
#944=VERTEX_POINT('',#942);
#945=VERTEX_POINT('',#943);
#946=CARTESIAN_POINT('',(-7.65E1,5.5E1,1.6E2));
#947=VERTEX_POINT('',#946);
#948=CARTESIAN_POINT('',(-7.65E1,5.5E1,8.E1));
#949=VERTEX_POINT('',#948);
#950=CARTESIAN_POINT('',(-2.165E2,1.05E2,8.E1));
#951=CARTESIAN_POINT('',(-2.165E2,1.05E2,1.6E2));
#952=VERTEX_POINT('',#950);
#953=VERTEX_POINT('',#951);
#954=CARTESIAN_POINT('',(-7.65E1,1.05E2,1.6E2));
#955=VERTEX_POINT('',#954);
#956=CARTESIAN_POINT('',(-7.65E1,1.05E2,8.E1));
#957=VERTEX_POINT('',#956);
#958=CARTESIAN_POINT('',(-6.15E1,8.E1,-1.5E2));
#959=CARTESIAN_POINT('',(-6.15E1,8.E1,5.E0));
#960=VERTEX_POINT('',#958);
#961=VERTEX_POINT('',#959);
#962=CARTESIAN_POINT('',(-4.65E1,8.E1,5.E0));
#963=VERTEX_POINT('',#962);
#964=CARTESIAN_POINT('',(-4.65E1,8.E1,-1.5E2));
#965=VERTEX_POINT('',#964);
#966=CARTESIAN_POINT('',(-6.15E1,1.05E2,-1.5E2));
#967=CARTESIAN_POINT('',(-6.15E1,1.05E2,5.E0));
#968=VERTEX_POINT('',#966);
#969=VERTEX_POINT('',#967);
#970=CARTESIAN_POINT('',(-4.65E1,1.05E2,5.E0));
#971=VERTEX_POINT('',#970);
#972=CARTESIAN_POINT('',(-4.65E1,1.05E2,-1.5E2));
#973=VERTEX_POINT('',#972);
#974=CARTESIAN_POINT('',(8.45E1,5.E1,4.E1));
#975=CARTESIAN_POINT('',(1.125E2,5.E1,4.E1));
#976=VERTEX_POINT('',#974);
#977=VERTEX_POINT('',#975);
#978=CARTESIAN_POINT('',(1.125E2,5.E1,-1.6E2));
#979=VERTEX_POINT('',#978);
#980=CARTESIAN_POINT('',(8.45E1,5.E1,-1.6E2));
#981=VERTEX_POINT('',#980);
#982=CARTESIAN_POINT('',(8.45E1,1.05E2,4.E1));
#983=CARTESIAN_POINT('',(1.125E2,1.05E2,4.E1));
#984=VERTEX_POINT('',#982);
#985=VERTEX_POINT('',#983);
#986=CARTESIAN_POINT('',(1.125E2,1.05E2,-1.6E2));
#987=VERTEX_POINT('',#986);
#988=CARTESIAN_POINT('',(8.45E1,1.05E2,-1.6E2));
#989=VERTEX_POINT('',#988);
#990=CARTESIAN_POINT('',(0.E0,0.E0,0.E0));
#991=DIRECTION('',(0.E0,1.E0,0.E0));
#992=DIRECTION('',(1.E0,0.E0,0.E0));
#993=AXIS2_PLACEMENT_3D('',#990,#991,#992);
#994=PLANE('',#993);
#996=ORIENTED_EDGE('',*,*,#995,.T.);
#998=ORIENTED_EDGE('',*,*,#997,.T.);
#1000=ORIENTED_EDGE('',*,*,#999,.T.);
#1002=ORIENTED_EDGE('',*,*,#1001,.T.);
#1003=EDGE_LOOP('',(#996,#998,#1000,#1002));
#1004=FACE_OUTER_BOUND('',#1003,.F.);
#1005=ADVANCED_FACE('',(#1004),#994,.F.);
#1006=CARTESIAN_POINT('',(-2.315E2,0.E0,1.75E2));
#1007=DIRECTION('',(0.E0,0.E0,1.E0));
#1008=DIRECTION('',(1.E0,0.E0,0.E0));
#1009=AXIS2_PLACEMENT_3D('',#1006,#1007,#1008);
#1010=PLANE('',#1009);
#1011=ORIENTED_EDGE('',*,*,#995,.F.);
#1013=ORIENTED_EDGE('',*,*,#1012,.T.);
#1015=ORIENTED_EDGE('',*,*,#1014,.T.);
#1017=ORIENTED_EDGE('',*,*,#1016,.F.);
#1018=EDGE_LOOP('',(#1011,#1013,#1015,#1017));
#1019=FACE_OUTER_BOUND('',#1018,.F.);
#1020=ADVANCED_FACE('',(#1019),#1010,.T.);
#1021=CARTESIAN_POINT('',(-2.315E2,0.E0,-1.75E2));
#1022=DIRECTION('',(-1.E0,0.E0,0.E0));
#1023=DIRECTION('',(0.E0,0.E0,1.E0));
#1024=AXIS2_PLACEMENT_3D('',#1021,#1022,#1023);
#1025=PLANE('',#1024);
#1026=ORIENTED_EDGE('',*,*,#1001,.F.);
#1028=ORIENTED_EDGE('',*,*,#1027,.T.);
#1030=ORIENTED_EDGE('',*,*,#1029,.T.);
#1031=ORIENTED_EDGE('',*,*,#1012,.F.);
#1032=EDGE_LOOP('',(#1026,#1028,#1030,#1031));
#1033=FACE_OUTER_BOUND('',#1032,.F.);
#1034=ADVANCED_FACE('',(#1033),#1025,.T.);
#1035=CARTESIAN_POINT('',(2.315E2,0.E0,-1.75E2));
#1036=DIRECTION('',(0.E0,0.E0,-1.E0));
#1037=DIRECTION('',(-1.E0,0.E0,0.E0));
#1038=AXIS2_PLACEMENT_3D('',#1035,#1036,#1037);
#1039=PLANE('',#1038);
#1040=ORIENTED_EDGE('',*,*,#999,.F.);
#1042=ORIENTED_EDGE('',*,*,#1041,.T.);
#1044=ORIENTED_EDGE('',*,*,#1043,.T.);
#1045=ORIENTED_EDGE('',*,*,#1027,.F.);
#1046=EDGE_LOOP('',(#1040,#1042,#1044,#1045));
#1047=FACE_OUTER_BOUND('',#1046,.F.);
#1048=ADVANCED_FACE('',(#1047),#1039,.T.);
#1049=CARTESIAN_POINT('',(2.315E2,0.E0,1.75E2));
#1050=DIRECTION('',(1.E0,0.E0,0.E0));
#1051=DIRECTION('',(0.E0,0.E0,-1.E0));
#1052=AXIS2_PLACEMENT_3D('',#1049,#1050,#1051);
#1053=PLANE('',#1052);
#1054=ORIENTED_EDGE('',*,*,#997,.F.);
#1055=ORIENTED_EDGE('',*,*,#1016,.T.);
#1057=ORIENTED_EDGE('',*,*,#1056,.T.);
#1058=ORIENTED_EDGE('',*,*,#1041,.F.);
#1059=EDGE_LOOP('',(#1054,#1055,#1057,#1058));
#1060=FACE_OUTER_BOUND('',#1059,.F.);
#1061=ADVANCED_FACE('',(#1060),#1053,.T.);
#1062=CARTESIAN_POINT('',(0.E0,1.05E2,0.E0));
#1063=DIRECTION('',(0.E0,1.E0,0.E0));
#1064=DIRECTION('',(1.E0,0.E0,0.E0));
#1065=AXIS2_PLACEMENT_3D('',#1062,#1063,#1064);
#1066=PLANE('',#1065);
#1067=ORIENTED_EDGE('',*,*,#1014,.F.);
#1068=ORIENTED_EDGE('',*,*,#1029,.F.);
#1069=ORIENTED_EDGE('',*,*,#1043,.F.);
#1070=ORIENTED_EDGE('',*,*,#1056,.F.);
#1071=EDGE_LOOP('',(#1067,#1068,#1069,#1070));
#1072=FACE_OUTER_BOUND('',#1071,.F.);
#1074=ORIENTED_EDGE('',*,*,#1073,.T.);
#1076=ORIENTED_EDGE('',*,*,#1075,.T.);
#1078=ORIENTED_EDGE('',*,*,#1077,.T.);
#1080=ORIENTED_EDGE('',*,*,#1079,.T.);
#1081=EDGE_LOOP('',(#1074,#1076,#1078,#1080));
#1082=FACE_BOUND('',#1081,.F.);
#1084=ORIENTED_EDGE('',*,*,#1083,.T.);
#1086=ORIENTED_EDGE('',*,*,#1085,.T.);
#1088=ORIENTED_EDGE('',*,*,#1087,.T.);
#1090=ORIENTED_EDGE('',*,*,#1089,.T.);
#1091=EDGE_LOOP('',(#1084,#1086,#1088,#1090));
#1092=FACE_BOUND('',#1091,.F.);
#1094=ORIENTED_EDGE('',*,*,#1093,.T.);
#1096=ORIENTED_EDGE('',*,*,#1095,.T.);
#1098=ORIENTED_EDGE('',*,*,#1097,.T.);
#1100=ORIENTED_EDGE('',*,*,#1099,.T.);
#1101=EDGE_LOOP('',(#1094,#1096,#1098,#1100));
#1102=FACE_BOUND('',#1101,.F.);
#1104=ORIENTED_EDGE('',*,*,#1103,.T.);
#1106=ORIENTED_EDGE('',*,*,#1105,.T.);
#1107=EDGE_LOOP('',(#1104,#1106));
#1108=FACE_BOUND('',#1107,.F.);
#1110=ORIENTED_EDGE('',*,*,#1109,.T.);
#1112=ORIENTED_EDGE('',*,*,#1111,.T.);
#1114=ORIENTED_EDGE('',*,*,#1113,.T.);
#1116=ORIENTED_EDGE('',*,*,#1115,.T.);
#1117=EDGE_LOOP('',(#1110,#1112,#1114,#1116));
#1118=FACE_BOUND('',#1117,.F.);
#1120=ORIENTED_EDGE('',*,*,#1119,.T.);
#1122=ORIENTED_EDGE('',*,*,#1121,.T.);
#1124=ORIENTED_EDGE('',*,*,#1123,.T.);
#1126=ORIENTED_EDGE('',*,*,#1125,.T.);
#1127=EDGE_LOOP('',(#1120,#1122,#1124,#1126));
#1128=FACE_BOUND('',#1127,.F.);
#1130=ORIENTED_EDGE('',*,*,#1129,.T.);
#1132=ORIENTED_EDGE('',*,*,#1131,.T.);
#1134=ORIENTED_EDGE('',*,*,#1133,.T.);
#1136=ORIENTED_EDGE('',*,*,#1135,.T.);
#1137=EDGE_LOOP('',(#1130,#1132,#1134,#1136));
#1138=FACE_BOUND('',#1137,.F.);
#1140=ORIENTED_EDGE('',*,*,#1139,.T.);
#1142=ORIENTED_EDGE('',*,*,#1141,.T.);
#1144=ORIENTED_EDGE('',*,*,#1143,.F.);
#1146=ORIENTED_EDGE('',*,*,#1145,.T.);
#1148=ORIENTED_EDGE('',*,*,#1147,.T.);
#1150=ORIENTED_EDGE('',*,*,#1149,.T.);
#1151=EDGE_LOOP('',(#1140,#1142,#1144,#1146,#1148,#1150));
#1152=FACE_BOUND('',#1151,.F.);
#1154=ORIENTED_EDGE('',*,*,#1153,.T.);
#1156=ORIENTED_EDGE('',*,*,#1155,.T.);
#1158=ORIENTED_EDGE('',*,*,#1157,.T.);
#1160=ORIENTED_EDGE('',*,*,#1159,.T.);
#1161=EDGE_LOOP('',(#1154,#1156,#1158,#1160));
#1162=FACE_BOUND('',#1161,.F.);
#1164=ORIENTED_EDGE('',*,*,#1163,.T.);
#1166=ORIENTED_EDGE('',*,*,#1165,.T.);
#1168=ORIENTED_EDGE('',*,*,#1167,.T.);
#1170=ORIENTED_EDGE('',*,*,#1169,.T.);
#1171=EDGE_LOOP('',(#1164,#1166,#1168,#1170));
#1172=FACE_BOUND('',#1171,.F.);
#1174=ORIENTED_EDGE('',*,*,#1173,.T.);
#1176=ORIENTED_EDGE('',*,*,#1175,.T.);
#1177=EDGE_LOOP('',(#1174,#1176));
#1178=FACE_BOUND('',#1177,.F.);
#1180=ORIENTED_EDGE('',*,*,#1179,.T.);
#1182=ORIENTED_EDGE('',*,*,#1181,.T.);
#1183=EDGE_LOOP('',(#1180,#1182));
#1184=FACE_BOUND('',#1183,.F.);
#1186=ORIENTED_EDGE('',*,*,#1185,.T.);
#1188=ORIENTED_EDGE('',*,*,#1187,.T.);
#1190=ORIENTED_EDGE('',*,*,#1189,.T.);
#1192=ORIENTED_EDGE('',*,*,#1191,.T.);
#1193=EDGE_LOOP('',(#1186,#1188,#1190,#1192));
#1194=FACE_BOUND('',#1193,.F.);
#1196=ORIENTED_EDGE('',*,*,#1195,.T.);
#1198=ORIENTED_EDGE('',*,*,#1197,.T.);
#1200=ORIENTED_EDGE('',*,*,#1199,.T.);
#1202=ORIENTED_EDGE('',*,*,#1201,.T.);
#1203=EDGE_LOOP('',(#1196,#1198,#1200,#1202));
#1204=FACE_BOUND('',#1203,.F.);
#1206=ORIENTED_EDGE('',*,*,#1205,.T.);
#1208=ORIENTED_EDGE('',*,*,#1207,.T.);
#1210=ORIENTED_EDGE('',*,*,#1209,.T.);
#1212=ORIENTED_EDGE('',*,*,#1211,.T.);
#1213=EDGE_LOOP('',(#1206,#1208,#1210,#1212));
#1214=FACE_BOUND('',#1213,.F.);
#1215=ADVANCED_FACE('',(#1072,#1082,#1092,#1102,#1108,#1118,#1128,#1138,#1152,
#1162,#1172,#1178,#1184,#1194,#1204,#1214),#1066,.T.);
#1216=CARTESIAN_POINT('',(2.165E2,1.05E2,-1.6E2));
#1217=DIRECTION('',(0.E0,0.E0,-1.E0));
#1218=DIRECTION('',(-1.E0,0.E0,0.E0));
#1219=AXIS2_PLACEMENT_3D('',#1216,#1217,#1218);
#1220=PLANE('',#1219);
#1221=ORIENTED_EDGE('',*,*,#1073,.F.);
#1223=ORIENTED_EDGE('',*,*,#1222,.T.);
#1225=ORIENTED_EDGE('',*,*,#1224,.T.);
#1227=ORIENTED_EDGE('',*,*,#1226,.F.);
#1228=EDGE_LOOP('',(#1221,#1223,#1225,#1227));
#1229=FACE_OUTER_BOUND('',#1228,.F.);
#1230=ADVANCED_FACE('',(#1229),#1220,.F.);
#1231=CARTESIAN_POINT('',(2.165E2,1.05E2,4.5E1));
#1232=DIRECTION('',(1.E0,0.E0,0.E0));
#1233=DIRECTION('',(0.E0,0.E0,-1.E0));
#1234=AXIS2_PLACEMENT_3D('',#1231,#1232,#1233);
#1235=PLANE('',#1234);
#1236=ORIENTED_EDGE('',*,*,#1079,.F.);
#1238=ORIENTED_EDGE('',*,*,#1237,.T.);
#1240=ORIENTED_EDGE('',*,*,#1239,.T.);
#1241=ORIENTED_EDGE('',*,*,#1222,.F.);
#1242=EDGE_LOOP('',(#1236,#1238,#1240,#1241));
#1243=FACE_OUTER_BOUND('',#1242,.F.);
#1244=ADVANCED_FACE('',(#1243),#1235,.F.);
#1245=CARTESIAN_POINT('',(1.545E2,1.05E2,4.5E1));
#1246=DIRECTION('',(0.E0,0.E0,1.E0));
#1247=DIRECTION('',(1.E0,0.E0,0.E0));
#1248=AXIS2_PLACEMENT_3D('',#1245,#1246,#1247);
#1249=PLANE('',#1248);
#1250=ORIENTED_EDGE('',*,*,#1077,.F.);
#1252=ORIENTED_EDGE('',*,*,#1251,.T.);
#1254=ORIENTED_EDGE('',*,*,#1253,.T.);
#1255=ORIENTED_EDGE('',*,*,#1237,.F.);
#1256=EDGE_LOOP('',(#1250,#1252,#1254,#1255));
#1257=FACE_OUTER_BOUND('',#1256,.F.);
#1258=ADVANCED_FACE('',(#1257),#1249,.F.);
#1259=CARTESIAN_POINT('',(1.545E2,1.05E2,-1.6E2));
#1260=DIRECTION('',(-1.E0,0.E0,0.E0));
#1261=DIRECTION('',(0.E0,0.E0,1.E0));
#1262=AXIS2_PLACEMENT_3D('',#1259,#1260,#1261);
#1263=PLANE('',#1262);
#1264=ORIENTED_EDGE('',*,*,#1075,.F.);
#1265=ORIENTED_EDGE('',*,*,#1226,.T.);
#1267=ORIENTED_EDGE('',*,*,#1266,.T.);
#1268=ORIENTED_EDGE('',*,*,#1251,.F.);
#1269=EDGE_LOOP('',(#1264,#1265,#1267,#1268));
#1270=FACE_OUTER_BOUND('',#1269,.F.);
#1271=ADVANCED_FACE('',(#1270),#1263,.F.);
#1272=CARTESIAN_POINT('',(0.E0,1.E1,0.E0));
#1273=DIRECTION('',(0.E0,1.E0,0.E0));
#1274=DIRECTION('',(1.E0,0.E0,0.E0));
#1275=AXIS2_PLACEMENT_3D('',#1272,#1273,#1274);
#1276=PLANE('',#1275);
#1277=ORIENTED_EDGE('',*,*,#1224,.F.);
#1278=ORIENTED_EDGE('',*,*,#1239,.F.);
#1279=ORIENTED_EDGE('',*,*,#1253,.F.);
#1280=ORIENTED_EDGE('',*,*,#1266,.F.);
#1281=EDGE_LOOP('',(#1277,#1278,#1279,#1280));
#1282=FACE_OUTER_BOUND('',#1281,.F.);
#1283=ADVANCED_FACE('',(#1282),#1276,.T.);
#1284=CARTESIAN_POINT('',(-6.15E1,1.05E2,1.6E2));
#1285=DIRECTION('',(0.E0,0.E0,1.E0));
#1286=DIRECTION('',(1.E0,0.E0,0.E0));
#1287=AXIS2_PLACEMENT_3D('',#1284,#1285,#1286);
#1288=PLANE('',#1287);
#1289=ORIENTED_EDGE('',*,*,#1083,.F.);
#1291=ORIENTED_EDGE('',*,*,#1290,.T.);
#1293=ORIENTED_EDGE('',*,*,#1292,.T.);
#1295=ORIENTED_EDGE('',*,*,#1294,.F.);
#1296=EDGE_LOOP('',(#1289,#1291,#1293,#1295));
#1297=FACE_OUTER_BOUND('',#1296,.F.);
#1298=ADVANCED_FACE('',(#1297),#1288,.F.);
#1299=CARTESIAN_POINT('',(-6.15E1,1.05E2,9.7E1));
#1300=DIRECTION('',(-1.E0,0.E0,0.E0));
#1301=DIRECTION('',(0.E0,0.E0,1.E0));
#1302=AXIS2_PLACEMENT_3D('',#1299,#1300,#1301);
#1303=PLANE('',#1302);
#1304=ORIENTED_EDGE('',*,*,#1089,.F.);
#1306=ORIENTED_EDGE('',*,*,#1305,.T.);
#1308=ORIENTED_EDGE('',*,*,#1307,.T.);
#1309=ORIENTED_EDGE('',*,*,#1290,.F.);
#1310=EDGE_LOOP('',(#1304,#1306,#1308,#1309));
#1311=FACE_OUTER_BOUND('',#1310,.F.);
#1312=ADVANCED_FACE('',(#1311),#1303,.F.);
#1313=CARTESIAN_POINT('',(-2.82E1,1.05E2,9.7E1));
#1314=DIRECTION('',(0.E0,0.E0,-1.E0));
#1315=DIRECTION('',(-1.E0,0.E0,0.E0));
#1316=AXIS2_PLACEMENT_3D('',#1313,#1314,#1315);
#1317=PLANE('',#1316);
#1318=ORIENTED_EDGE('',*,*,#1087,.F.);
#1320=ORIENTED_EDGE('',*,*,#1319,.T.);
#1322=ORIENTED_EDGE('',*,*,#1321,.T.);
#1323=ORIENTED_EDGE('',*,*,#1305,.F.);
#1324=EDGE_LOOP('',(#1318,#1320,#1322,#1323));
#1325=FACE_OUTER_BOUND('',#1324,.F.);
#1326=ADVANCED_FACE('',(#1325),#1317,.F.);
#1327=CARTESIAN_POINT('',(-2.82E1,1.05E2,1.6E2));
#1328=DIRECTION('',(1.E0,0.E0,0.E0));
#1329=DIRECTION('',(0.E0,0.E0,-1.E0));
#1330=AXIS2_PLACEMENT_3D('',#1327,#1328,#1329);
#1331=PLANE('',#1330);
#1332=ORIENTED_EDGE('',*,*,#1085,.F.);
#1333=ORIENTED_EDGE('',*,*,#1294,.T.);
#1335=ORIENTED_EDGE('',*,*,#1334,.T.);
#1336=ORIENTED_EDGE('',*,*,#1319,.F.);
#1337=EDGE_LOOP('',(#1332,#1333,#1335,#1336));
#1338=FACE_OUTER_BOUND('',#1337,.F.);
#1339=ADVANCED_FACE('',(#1338),#1331,.F.);
#1340=CARTESIAN_POINT('',(0.E0,4.26E1,0.E0));
#1341=DIRECTION('',(0.E0,1.E0,0.E0));
#1342=DIRECTION('',(1.E0,0.E0,0.E0));
#1343=AXIS2_PLACEMENT_3D('',#1340,#1341,#1342);
#1344=PLANE('',#1343);
#1345=ORIENTED_EDGE('',*,*,#1292,.F.);
#1346=ORIENTED_EDGE('',*,*,#1307,.F.);
#1347=ORIENTED_EDGE('',*,*,#1321,.F.);
#1348=ORIENTED_EDGE('',*,*,#1334,.F.);
#1349=EDGE_LOOP('',(#1345,#1346,#1347,#1348));
#1350=FACE_OUTER_BOUND('',#1349,.F.);
#1351=ADVANCED_FACE('',(#1350),#1344,.T.);
#1352=CARTESIAN_POINT('',(1.193961049584E2,1.05E2,1.261545391916E2));
#1353=DIRECTION('',(-1.E0,0.E0,0.E0));
#1354=DIRECTION('',(0.E0,0.E0,1.E0));
#1355=AXIS2_PLACEMENT_3D('',#1352,#1353,#1354);
#1356=PLANE('',#1355);
#1357=ORIENTED_EDGE('',*,*,#1093,.F.);
#1359=ORIENTED_EDGE('',*,*,#1358,.T.);
#1361=ORIENTED_EDGE('',*,*,#1360,.T.);
#1363=ORIENTED_EDGE('',*,*,#1362,.F.);
#1364=EDGE_LOOP('',(#1357,#1359,#1361,#1363));
#1365=FACE_OUTER_BOUND('',#1364,.F.);
#1366=ADVANCED_FACE('',(#1365),#1356,.F.);
#1367=CARTESIAN_POINT('',(1.493961049584E2,1.05E2,1.261545391916E2));
#1368=DIRECTION('',(0.E0,0.E0,-1.E0));
#1369=DIRECTION('',(-1.E0,0.E0,0.E0));
#1370=AXIS2_PLACEMENT_3D('',#1367,#1368,#1369);
#1371=PLANE('',#1370);
#1372=ORIENTED_EDGE('',*,*,#1099,.F.);
#1374=ORIENTED_EDGE('',*,*,#1373,.T.);
#1376=ORIENTED_EDGE('',*,*,#1375,.T.);
#1377=ORIENTED_EDGE('',*,*,#1358,.F.);
#1378=EDGE_LOOP('',(#1372,#1374,#1376,#1377));
#1379=FACE_OUTER_BOUND('',#1378,.F.);
#1380=ADVANCED_FACE('',(#1379),#1371,.F.);
#1381=CARTESIAN_POINT('',(1.493961049584E2,1.05E2,1.411545391916E2));
#1382=DIRECTION('',(1.E0,0.E0,0.E0));
#1383=DIRECTION('',(0.E0,0.E0,-1.E0));
#1384=AXIS2_PLACEMENT_3D('',#1381,#1382,#1383);
#1385=PLANE('',#1384);
#1386=ORIENTED_EDGE('',*,*,#1097,.F.);
#1388=ORIENTED_EDGE('',*,*,#1387,.T.);
#1390=ORIENTED_EDGE('',*,*,#1389,.T.);
#1391=ORIENTED_EDGE('',*,*,#1373,.F.);
#1392=EDGE_LOOP('',(#1386,#1388,#1390,#1391));
#1393=FACE_OUTER_BOUND('',#1392,.F.);
#1394=ADVANCED_FACE('',(#1393),#1385,.F.);
#1395=CARTESIAN_POINT('',(1.193961049584E2,1.05E2,1.411545391916E2));
#1396=DIRECTION('',(0.E0,0.E0,1.E0));
#1397=DIRECTION('',(1.E0,0.E0,0.E0));
#1398=AXIS2_PLACEMENT_3D('',#1395,#1396,#1397);
#1399=PLANE('',#1398);
#1400=ORIENTED_EDGE('',*,*,#1095,.F.);
#1401=ORIENTED_EDGE('',*,*,#1362,.T.);
#1403=ORIENTED_EDGE('',*,*,#1402,.T.);
#1404=ORIENTED_EDGE('',*,*,#1387,.F.);
#1405=EDGE_LOOP('',(#1400,#1401,#1403,#1404));
#1406=FACE_OUTER_BOUND('',#1405,.F.);
#1407=ADVANCED_FACE('',(#1406),#1399,.F.);
#1408=CARTESIAN_POINT('',(0.E0,3.5E1,0.E0));
#1409=DIRECTION('',(0.E0,1.E0,0.E0));
#1410=DIRECTION('',(1.E0,0.E0,0.E0));
#1411=AXIS2_PLACEMENT_3D('',#1408,#1409,#1410);
#1412=PLANE('',#1411);
#1413=ORIENTED_EDGE('',*,*,#1360,.F.);
#1414=ORIENTED_EDGE('',*,*,#1375,.F.);
#1415=ORIENTED_EDGE('',*,*,#1389,.F.);
#1416=ORIENTED_EDGE('',*,*,#1402,.F.);
#1417=EDGE_LOOP('',(#1413,#1414,#1415,#1416));
#1418=FACE_OUTER_BOUND('',#1417,.F.);
#1419=ADVANCED_FACE('',(#1418),#1412,.T.);
#1420=CARTESIAN_POINT('',(2.012348609287E2,1.05E2,1.45E2));
#1421=DIRECTION('',(0.E0,1.E0,0.E0));
#1422=DIRECTION('',(1.E0,0.E0,0.E0));
#1423=AXIS2_PLACEMENT_3D('',#1420,#1421,#1422);
#1424=CYLINDRICAL_SURFACE('',#1423,1.5E1);
#1425=ORIENTED_EDGE('',*,*,#1103,.F.);
#1427=ORIENTED_EDGE('',*,*,#1426,.T.);
#1429=ORIENTED_EDGE('',*,*,#1428,.T.);
#1431=ORIENTED_EDGE('',*,*,#1430,.F.);
#1432=EDGE_LOOP('',(#1425,#1427,#1429,#1431));
#1433=FACE_OUTER_BOUND('',#1432,.F.);
#1434=ADVANCED_FACE('',(#1433),#1424,.F.);
#1435=CARTESIAN_POINT('',(2.012348609287E2,1.05E2,1.45E2));
#1436=DIRECTION('',(0.E0,1.E0,0.E0));
#1437=DIRECTION('',(1.E0,0.E0,0.E0));
#1438=AXIS2_PLACEMENT_3D('',#1435,#1436,#1437);
#1439=CYLINDRICAL_SURFACE('',#1438,1.5E1);
#1440=ORIENTED_EDGE('',*,*,#1105,.F.);
#1441=ORIENTED_EDGE('',*,*,#1430,.T.);
#1443=ORIENTED_EDGE('',*,*,#1442,.T.);
#1444=ORIENTED_EDGE('',*,*,#1426,.F.);
#1445=EDGE_LOOP('',(#1440,#1441,#1443,#1444));
#1446=FACE_OUTER_BOUND('',#1445,.F.);
#1447=ADVANCED_FACE('',(#1446),#1439,.F.);
#1448=CARTESIAN_POINT('',(0.E0,7.E0,0.E0));
#1449=DIRECTION('',(0.E0,1.E0,0.E0));
#1450=DIRECTION('',(1.E0,0.E0,0.E0));
#1451=AXIS2_PLACEMENT_3D('',#1448,#1449,#1450);
#1452=PLANE('',#1451);
#1453=ORIENTED_EDGE('',*,*,#1428,.F.);
#1454=ORIENTED_EDGE('',*,*,#1442,.F.);
#1455=EDGE_LOOP('',(#1453,#1454));
#1456=FACE_OUTER_BOUND('',#1455,.F.);
#1457=ADVANCED_FACE('',(#1456),#1452,.T.);
#1458=CARTESIAN_POINT('',(1.623827806794E2,1.05E2,8.487787071514E1));
#1459=DIRECTION('',(-1.E0,0.E0,0.E0));
#1460=DIRECTION('',(0.E0,0.E0,1.E0));
#1461=AXIS2_PLACEMENT_3D('',#1458,#1459,#1460);
#1462=PLANE('',#1461);
#1463=ORIENTED_EDGE('',*,*,#1109,.F.);
#1465=ORIENTED_EDGE('',*,*,#1464,.T.);
#1467=ORIENTED_EDGE('',*,*,#1466,.T.);
#1469=ORIENTED_EDGE('',*,*,#1468,.F.);
#1470=EDGE_LOOP('',(#1463,#1465,#1467,#1469));
#1471=FACE_OUTER_BOUND('',#1470,.F.);
#1472=ADVANCED_FACE('',(#1471),#1462,.F.);
#1473=CARTESIAN_POINT('',(1.735827806794E2,1.05E2,8.487787071514E1));
#1474=DIRECTION('',(0.E0,0.E0,-1.E0));
#1475=DIRECTION('',(-1.E0,0.E0,0.E0));
#1476=AXIS2_PLACEMENT_3D('',#1473,#1474,#1475);
#1477=PLANE('',#1476);
#1478=ORIENTED_EDGE('',*,*,#1115,.F.);
#1480=ORIENTED_EDGE('',*,*,#1479,.T.);
#1482=ORIENTED_EDGE('',*,*,#1481,.T.);
#1483=ORIENTED_EDGE('',*,*,#1464,.F.);
#1484=EDGE_LOOP('',(#1478,#1480,#1482,#1483));
#1485=FACE_OUTER_BOUND('',#1484,.F.);
#1486=ADVANCED_FACE('',(#1485),#1477,.F.);
#1487=CARTESIAN_POINT('',(1.735827806794E2,1.05E2,1.061778707151E2));
#1488=DIRECTION('',(1.E0,0.E0,0.E0));
#1489=DIRECTION('',(0.E0,0.E0,-1.E0));
#1490=AXIS2_PLACEMENT_3D('',#1487,#1488,#1489);
#1491=PLANE('',#1490);
#1492=ORIENTED_EDGE('',*,*,#1113,.F.);
#1494=ORIENTED_EDGE('',*,*,#1493,.T.);
#1496=ORIENTED_EDGE('',*,*,#1495,.T.);
#1497=ORIENTED_EDGE('',*,*,#1479,.F.);
#1498=EDGE_LOOP('',(#1492,#1494,#1496,#1497));
#1499=FACE_OUTER_BOUND('',#1498,.F.);
#1500=ADVANCED_FACE('',(#1499),#1491,.F.);
#1501=CARTESIAN_POINT('',(1.623827806794E2,1.05E2,1.061778707151E2));
#1502=DIRECTION('',(0.E0,0.E0,1.E0));
#1503=DIRECTION('',(1.E0,0.E0,0.E0));
#1504=AXIS2_PLACEMENT_3D('',#1501,#1502,#1503);
#1505=PLANE('',#1504);
#1506=ORIENTED_EDGE('',*,*,#1111,.F.);
#1507=ORIENTED_EDGE('',*,*,#1468,.T.);
#1509=ORIENTED_EDGE('',*,*,#1508,.T.);
#1510=ORIENTED_EDGE('',*,*,#1493,.F.);
#1511=EDGE_LOOP('',(#1506,#1507,#1509,#1510));
#1512=FACE_OUTER_BOUND('',#1511,.F.);
#1513=ADVANCED_FACE('',(#1512),#1505,.F.);
#1514=CARTESIAN_POINT('',(0.E0,2.E1,0.E0));
#1515=DIRECTION('',(0.E0,1.E0,0.E0));
#1516=DIRECTION('',(1.E0,0.E0,0.E0));
#1517=AXIS2_PLACEMENT_3D('',#1514,#1515,#1516);
#1518=PLANE('',#1517);
#1519=ORIENTED_EDGE('',*,*,#1466,.F.);
#1520=ORIENTED_EDGE('',*,*,#1481,.F.);
#1521=ORIENTED_EDGE('',*,*,#1495,.F.);
#1522=ORIENTED_EDGE('',*,*,#1508,.F.);
#1523=EDGE_LOOP('',(#1519,#1520,#1521,#1522));
#1524=FACE_OUTER_BOUND('',#1523,.F.);
#1525=ADVANCED_FACE('',(#1524),#1518,.T.);
#1526=CARTESIAN_POINT('',(5.95E1,1.05E2,-1.6E2));
#1527=DIRECTION('',(-1.E0,0.E0,0.E0));
#1528=DIRECTION('',(0.E0,0.E0,1.E0));
#1529=AXIS2_PLACEMENT_3D('',#1526,#1527,#1528);
#1530=PLANE('',#1529);
#1531=ORIENTED_EDGE('',*,*,#1119,.F.);
#1533=ORIENTED_EDGE('',*,*,#1532,.T.);
#1535=ORIENTED_EDGE('',*,*,#1534,.T.);
#1537=ORIENTED_EDGE('',*,*,#1536,.F.);
#1538=EDGE_LOOP('',(#1531,#1533,#1535,#1537));
#1539=FACE_OUTER_BOUND('',#1538,.F.);
#1540=ADVANCED_FACE('',(#1539),#1530,.F.);
#1541=CARTESIAN_POINT('',(7.45E1,1.05E2,-1.6E2));
#1542=DIRECTION('',(0.E0,0.E0,-1.E0));
#1543=DIRECTION('',(-1.E0,0.E0,0.E0));
#1544=AXIS2_PLACEMENT_3D('',#1541,#1542,#1543);
#1545=PLANE('',#1544);
#1546=ORIENTED_EDGE('',*,*,#1125,.F.);
#1548=ORIENTED_EDGE('',*,*,#1547,.T.);
#1550=ORIENTED_EDGE('',*,*,#1549,.T.);
#1551=ORIENTED_EDGE('',*,*,#1532,.F.);
#1552=EDGE_LOOP('',(#1546,#1548,#1550,#1551));
#1553=FACE_OUTER_BOUND('',#1552,.F.);
#1554=ADVANCED_FACE('',(#1553),#1545,.F.);
#1555=CARTESIAN_POINT('',(7.45E1,1.05E2,7.E1));
#1556=DIRECTION('',(1.E0,0.E0,0.E0));
#1557=DIRECTION('',(0.E0,0.E0,-1.E0));
#1558=AXIS2_PLACEMENT_3D('',#1555,#1556,#1557);
#1559=PLANE('',#1558);
#1560=ORIENTED_EDGE('',*,*,#1123,.F.);
#1562=ORIENTED_EDGE('',*,*,#1561,.T.);
#1564=ORIENTED_EDGE('',*,*,#1563,.T.);
#1565=ORIENTED_EDGE('',*,*,#1547,.F.);
#1566=EDGE_LOOP('',(#1560,#1562,#1564,#1565));
#1567=FACE_OUTER_BOUND('',#1566,.F.);
#1568=ADVANCED_FACE('',(#1567),#1559,.F.);
#1569=CARTESIAN_POINT('',(5.95E1,1.05E2,7.E1));
#1570=DIRECTION('',(0.E0,0.E0,1.E0));
#1571=DIRECTION('',(1.E0,0.E0,0.E0));
#1572=AXIS2_PLACEMENT_3D('',#1569,#1570,#1571);
#1573=PLANE('',#1572);
#1574=ORIENTED_EDGE('',*,*,#1121,.F.);
#1575=ORIENTED_EDGE('',*,*,#1536,.T.);
#1577=ORIENTED_EDGE('',*,*,#1576,.T.);
#1578=ORIENTED_EDGE('',*,*,#1561,.F.);
#1579=EDGE_LOOP('',(#1574,#1575,#1577,#1578));
#1580=FACE_OUTER_BOUND('',#1579,.F.);
#1581=ADVANCED_FACE('',(#1580),#1573,.F.);
#1582=CARTESIAN_POINT('',(0.E0,7.8E1,0.E0));
#1583=DIRECTION('',(0.E0,1.E0,0.E0));
#1584=DIRECTION('',(1.E0,0.E0,0.E0));
#1585=AXIS2_PLACEMENT_3D('',#1582,#1583,#1584);
#1586=PLANE('',#1585);
#1587=ORIENTED_EDGE('',*,*,#1534,.F.);
#1588=ORIENTED_EDGE('',*,*,#1549,.F.);
#1589=ORIENTED_EDGE('',*,*,#1563,.F.);
#1590=ORIENTED_EDGE('',*,*,#1576,.F.);
#1591=EDGE_LOOP('',(#1587,#1588,#1589,#1590));
#1592=FACE_OUTER_BOUND('',#1591,.F.);
#1593=ADVANCED_FACE('',(#1592),#1586,.T.);
#1594=CARTESIAN_POINT('',(1.44E2,1.05E2,-1.6E2));
#1595=DIRECTION('',(0.E0,0.E0,-1.E0));
#1596=DIRECTION('',(-1.E0,0.E0,0.E0));
#1597=AXIS2_PLACEMENT_3D('',#1594,#1595,#1596);
#1598=PLANE('',#1597);
#1599=ORIENTED_EDGE('',*,*,#1129,.F.);
#1601=ORIENTED_EDGE('',*,*,#1600,.T.);
#1603=ORIENTED_EDGE('',*,*,#1602,.T.);
#1605=ORIENTED_EDGE('',*,*,#1604,.F.);
#1606=EDGE_LOOP('',(#1599,#1601,#1603,#1605));
#1607=FACE_OUTER_BOUND('',#1606,.F.);
#1608=ADVANCED_FACE('',(#1607),#1598,.F.);
#1609=CARTESIAN_POINT('',(1.44E2,1.05E2,1.E2));
#1610=DIRECTION('',(1.E0,0.E0,0.E0));
#1611=DIRECTION('',(0.E0,0.E0,-1.E0));
#1612=AXIS2_PLACEMENT_3D('',#1609,#1610,#1611);
#1613=PLANE('',#1612);
#1614=ORIENTED_EDGE('',*,*,#1135,.F.);
#1616=ORIENTED_EDGE('',*,*,#1615,.T.);
#1618=ORIENTED_EDGE('',*,*,#1617,.T.);
#1619=ORIENTED_EDGE('',*,*,#1600,.F.);
#1620=EDGE_LOOP('',(#1614,#1616,#1618,#1619));
#1621=FACE_OUTER_BOUND('',#1620,.F.);
#1622=ADVANCED_FACE('',(#1621),#1613,.F.);
#1623=CARTESIAN_POINT('',(1.225E2,1.05E2,1.E2));
#1624=DIRECTION('',(0.E0,0.E0,1.E0));
#1625=DIRECTION('',(1.E0,0.E0,0.E0));
#1626=AXIS2_PLACEMENT_3D('',#1623,#1624,#1625);
#1627=PLANE('',#1626);
#1628=ORIENTED_EDGE('',*,*,#1133,.F.);
#1630=ORIENTED_EDGE('',*,*,#1629,.T.);
#1632=ORIENTED_EDGE('',*,*,#1631,.T.);
#1633=ORIENTED_EDGE('',*,*,#1615,.F.);
#1634=EDGE_LOOP('',(#1628,#1630,#1632,#1633));
#1635=FACE_OUTER_BOUND('',#1634,.F.);
#1636=ADVANCED_FACE('',(#1635),#1627,.F.);
#1637=CARTESIAN_POINT('',(1.225E2,1.05E2,-1.6E2));
#1638=DIRECTION('',(-1.E0,0.E0,0.E0));
#1639=DIRECTION('',(0.E0,0.E0,1.E0));
#1640=AXIS2_PLACEMENT_3D('',#1637,#1638,#1639);
#1641=PLANE('',#1640);
#1642=ORIENTED_EDGE('',*,*,#1131,.F.);
#1643=ORIENTED_EDGE('',*,*,#1604,.T.);
#1645=ORIENTED_EDGE('',*,*,#1644,.T.);
#1646=ORIENTED_EDGE('',*,*,#1629,.F.);
#1647=EDGE_LOOP('',(#1642,#1643,#1645,#1646));
#1648=FACE_OUTER_BOUND('',#1647,.F.);
#1649=ADVANCED_FACE('',(#1648),#1641,.F.);
#1650=CARTESIAN_POINT('',(0.E0,1.3E1,0.E0));
#1651=DIRECTION('',(0.E0,1.E0,0.E0));
#1652=DIRECTION('',(1.E0,0.E0,0.E0));
#1653=AXIS2_PLACEMENT_3D('',#1650,#1651,#1652);
#1654=PLANE('',#1653);
#1655=ORIENTED_EDGE('',*,*,#1602,.F.);
#1656=ORIENTED_EDGE('',*,*,#1617,.F.);
#1657=ORIENTED_EDGE('',*,*,#1631,.F.);
#1658=ORIENTED_EDGE('',*,*,#1644,.F.);
#1659=EDGE_LOOP('',(#1655,#1656,#1657,#1658));
#1660=FACE_OUTER_BOUND('',#1659,.F.);
#1661=ADVANCED_FACE('',(#1660),#1654,.T.);
#1662=CARTESIAN_POINT('',(-2.065E2,1.05E2,5.E0));
#1663=DIRECTION('',(0.E0,0.E0,1.E0));
#1664=DIRECTION('',(1.E0,0.E0,0.E0));
#1665=AXIS2_PLACEMENT_3D('',#1662,#1663,#1664);
#1666=PLANE('',#1665);
#1667=ORIENTED_EDGE('',*,*,#1139,.F.);
#1669=ORIENTED_EDGE('',*,*,#1668,.T.);
#1671=ORIENTED_EDGE('',*,*,#1670,.T.);
#1673=ORIENTED_EDGE('',*,*,#1672,.F.);
#1674=EDGE_LOOP('',(#1667,#1669,#1671,#1673));
#1675=FACE_OUTER_BOUND('',#1674,.F.);
#1676=ADVANCED_FACE('',(#1675),#1666,.F.);
#1677=CARTESIAN_POINT('',(-1.105E2,1.05E2,4.E1));
#1678=DIRECTION('',(1.E0,0.E0,0.E0));
#1679=DIRECTION('',(0.E0,0.E0,-1.E0));
#1680=AXIS2_PLACEMENT_3D('',#1677,#1678,#1679);
#1681=PLANE('',#1680);
#1683=ORIENTED_EDGE('',*,*,#1682,.F.);
#1684=ORIENTED_EDGE('',*,*,#1668,.F.);
#1685=ORIENTED_EDGE('',*,*,#1149,.F.);
#1687=ORIENTED_EDGE('',*,*,#1686,.T.);
#1689=ORIENTED_EDGE('',*,*,#1688,.T.);
#1691=ORIENTED_EDGE('',*,*,#1690,.F.);
#1692=EDGE_LOOP('',(#1683,#1684,#1685,#1687,#1689,#1691));
#1693=FACE_OUTER_BOUND('',#1692,.F.);
#1694=ADVANCED_FACE('',(#1693),#1681,.F.);
#1695=CARTESIAN_POINT('',(0.E0,9.5E1,0.E0));
#1696=DIRECTION('',(0.E0,1.E0,0.E0));
#1697=DIRECTION('',(1.E0,0.E0,0.E0));
#1698=AXIS2_PLACEMENT_3D('',#1695,#1696,#1697);
#1699=PLANE('',#1698);
#1700=ORIENTED_EDGE('',*,*,#1682,.T.);
#1702=ORIENTED_EDGE('',*,*,#1701,.F.);
#1704=ORIENTED_EDGE('',*,*,#1703,.T.);
#1705=ORIENTED_EDGE('',*,*,#1670,.F.);
#1706=EDGE_LOOP('',(#1700,#1702,#1704,#1705));
#1707=FACE_OUTER_BOUND('',#1706,.F.);
#1708=ADVANCED_FACE('',(#1707),#1699,.T.);
#1709=CARTESIAN_POINT('',(-1.105E2,1.05E2,-1.5E2));
#1710=DIRECTION('',(0.E0,0.E0,-1.E0));
#1711=DIRECTION('',(-1.E0,0.E0,0.E0));
#1712=AXIS2_PLACEMENT_3D('',#1709,#1710,#1711);
#1713=PLANE('',#1712);
#1714=ORIENTED_EDGE('',*,*,#1143,.T.);
#1716=ORIENTED_EDGE('',*,*,#1715,.T.);
#1717=ORIENTED_EDGE('',*,*,#1701,.T.);
#1718=ORIENTED_EDGE('',*,*,#1690,.T.);
#1720=ORIENTED_EDGE('',*,*,#1719,.T.);
#1722=ORIENTED_EDGE('',*,*,#1721,.F.);
#1723=EDGE_LOOP('',(#1714,#1716,#1717,#1718,#1720,#1722));
#1724=FACE_OUTER_BOUND('',#1723,.F.);
#1725=ADVANCED_FACE('',(#1724),#1713,.F.);
#1726=CARTESIAN_POINT('',(-7.65E1,1.05E2,5.E0));
#1727=DIRECTION('',(1.E0,0.E0,0.E0));
#1728=DIRECTION('',(0.E0,0.E0,-1.E0));
#1729=AXIS2_PLACEMENT_3D('',#1726,#1727,#1728);
#1730=PLANE('',#1729);
#1731=ORIENTED_EDGE('',*,*,#1141,.F.);
#1732=ORIENTED_EDGE('',*,*,#1672,.T.);
#1733=ORIENTED_EDGE('',*,*,#1703,.F.);
#1734=ORIENTED_EDGE('',*,*,#1715,.F.);
#1735=EDGE_LOOP('',(#1731,#1732,#1733,#1734));
#1736=FACE_OUTER_BOUND('',#1735,.F.);
#1737=ADVANCED_FACE('',(#1736),#1730,.F.);
#1738=CARTESIAN_POINT('',(0.E0,4.E1,0.E0));
#1739=DIRECTION('',(0.E0,1.E0,0.E0));
#1740=DIRECTION('',(1.E0,0.E0,0.E0));
#1741=AXIS2_PLACEMENT_3D('',#1738,#1739,#1740);
#1742=PLANE('',#1741);
#1744=ORIENTED_EDGE('',*,*,#1743,.F.);
#1745=ORIENTED_EDGE('',*,*,#1719,.F.);
#1746=ORIENTED_EDGE('',*,*,#1688,.F.);
#1748=ORIENTED_EDGE('',*,*,#1747,.F.);
#1749=EDGE_LOOP('',(#1744,#1745,#1746,#1748));
#1750=FACE_OUTER_BOUND('',#1749,.F.);
#1751=ADVANCED_FACE('',(#1750),#1742,.T.);
#1752=CARTESIAN_POINT('',(-2.065E2,1.05E2,-1.5E2));
#1753=DIRECTION('',(-1.E0,0.E0,0.E0));
#1754=DIRECTION('',(0.E0,0.E0,1.E0));
#1755=AXIS2_PLACEMENT_3D('',#1752,#1753,#1754);
#1756=PLANE('',#1755);
#1757=ORIENTED_EDGE('',*,*,#1145,.F.);
#1758=ORIENTED_EDGE('',*,*,#1721,.T.);
#1759=ORIENTED_EDGE('',*,*,#1743,.T.);
#1761=ORIENTED_EDGE('',*,*,#1760,.F.);
#1762=EDGE_LOOP('',(#1757,#1758,#1759,#1761));
#1763=FACE_OUTER_BOUND('',#1762,.F.);
#1764=ADVANCED_FACE('',(#1763),#1756,.F.);
#1765=CARTESIAN_POINT('',(-2.065E2,1.05E2,4.E1));
#1766=DIRECTION('',(0.E0,0.E0,1.E0));
#1767=DIRECTION('',(1.E0,0.E0,0.E0));
#1768=AXIS2_PLACEMENT_3D('',#1765,#1766,#1767);
#1769=PLANE('',#1768);
#1770=ORIENTED_EDGE('',*,*,#1147,.F.);
#1771=ORIENTED_EDGE('',*,*,#1760,.T.);
#1772=ORIENTED_EDGE('',*,*,#1747,.T.);
#1773=ORIENTED_EDGE('',*,*,#1686,.F.);
#1774=EDGE_LOOP('',(#1770,#1771,#1772,#1773));
#1775=FACE_OUTER_BOUND('',#1774,.F.);
#1776=ADVANCED_FACE('',(#1775),#1769,.F.);
#1777=CARTESIAN_POINT('',(-3.15E1,1.05E2,-1.5E2));
#1778=DIRECTION('',(-1.E0,0.E0,0.E0));
#1779=DIRECTION('',(0.E0,0.E0,1.E0));
#1780=AXIS2_PLACEMENT_3D('',#1777,#1778,#1779);
#1781=PLANE('',#1780);
#1782=ORIENTED_EDGE('',*,*,#1153,.F.);
#1784=ORIENTED_EDGE('',*,*,#1783,.T.);
#1786=ORIENTED_EDGE('',*,*,#1785,.T.);
#1788=ORIENTED_EDGE('',*,*,#1787,.F.);
#1789=EDGE_LOOP('',(#1782,#1784,#1786,#1788));
#1790=FACE_OUTER_BOUND('',#1789,.F.);
#1791=ADVANCED_FACE('',(#1790),#1781,.F.);
#1792=CARTESIAN_POINT('',(3.95E1,1.05E2,-1.5E2));
#1793=DIRECTION('',(0.E0,0.E0,-1.E0));
#1794=DIRECTION('',(-1.E0,0.E0,0.E0));
#1795=AXIS2_PLACEMENT_3D('',#1792,#1793,#1794);
#1796=PLANE('',#1795);
#1797=ORIENTED_EDGE('',*,*,#1159,.F.);
#1799=ORIENTED_EDGE('',*,*,#1798,.T.);
#1801=ORIENTED_EDGE('',*,*,#1800,.T.);
#1802=ORIENTED_EDGE('',*,*,#1783,.F.);
#1803=EDGE_LOOP('',(#1797,#1799,#1801,#1802));
#1804=FACE_OUTER_BOUND('',#1803,.F.);
#1805=ADVANCED_FACE('',(#1804),#1796,.F.);
#1806=CARTESIAN_POINT('',(3.95E1,1.05E2,1.E1));
#1807=DIRECTION('',(1.E0,0.E0,0.E0));
#1808=DIRECTION('',(0.E0,0.E0,-1.E0));
#1809=AXIS2_PLACEMENT_3D('',#1806,#1807,#1808);
#1810=PLANE('',#1809);
#1811=ORIENTED_EDGE('',*,*,#1157,.F.);
#1813=ORIENTED_EDGE('',*,*,#1812,.T.);
#1815=ORIENTED_EDGE('',*,*,#1814,.T.);
#1816=ORIENTED_EDGE('',*,*,#1798,.F.);
#1817=EDGE_LOOP('',(#1811,#1813,#1815,#1816));
#1818=FACE_OUTER_BOUND('',#1817,.F.);
#1819=ADVANCED_FACE('',(#1818),#1810,.F.);
#1820=CARTESIAN_POINT('',(-3.15E1,1.05E2,1.E1));
#1821=DIRECTION('',(0.E0,0.E0,1.E0));
#1822=DIRECTION('',(1.E0,0.E0,0.E0));
#1823=AXIS2_PLACEMENT_3D('',#1820,#1821,#1822);
#1824=PLANE('',#1823);
#1825=ORIENTED_EDGE('',*,*,#1155,.F.);
#1826=ORIENTED_EDGE('',*,*,#1787,.T.);
#1828=ORIENTED_EDGE('',*,*,#1827,.T.);
#1829=ORIENTED_EDGE('',*,*,#1812,.F.);
#1830=EDGE_LOOP('',(#1825,#1826,#1828,#1829));
#1831=FACE_OUTER_BOUND('',#1830,.F.);
#1832=ADVANCED_FACE('',(#1831),#1824,.F.);
#1833=CARTESIAN_POINT('',(0.E0,2.4E1,0.E0));
#1834=DIRECTION('',(0.E0,1.E0,0.E0));
#1835=DIRECTION('',(1.E0,0.E0,0.E0));
#1836=AXIS2_PLACEMENT_3D('',#1833,#1834,#1835);
#1837=PLANE('',#1836);
#1838=ORIENTED_EDGE('',*,*,#1785,.F.);
#1839=ORIENTED_EDGE('',*,*,#1800,.F.);
#1840=ORIENTED_EDGE('',*,*,#1814,.F.);
#1841=ORIENTED_EDGE('',*,*,#1827,.F.);
#1842=EDGE_LOOP('',(#1838,#1839,#1840,#1841));
#1843=FACE_OUTER_BOUND('',#1842,.F.);
#1844=ADVANCED_FACE('',(#1843),#1837,.T.);
#1845=CARTESIAN_POINT('',(-1.32E1,1.05E2,8.E1));
#1846=DIRECTION('',(-1.E0,0.E0,0.E0));
#1847=DIRECTION('',(0.E0,0.E0,1.E0));
#1848=AXIS2_PLACEMENT_3D('',#1845,#1846,#1847);
#1849=PLANE('',#1848);
#1850=ORIENTED_EDGE('',*,*,#1163,.F.);
#1852=ORIENTED_EDGE('',*,*,#1851,.T.);
#1854=ORIENTED_EDGE('',*,*,#1853,.T.);
#1856=ORIENTED_EDGE('',*,*,#1855,.F.);
#1857=EDGE_LOOP('',(#1850,#1852,#1854,#1856));
#1858=FACE_OUTER_BOUND('',#1857,.F.);
#1859=ADVANCED_FACE('',(#1858),#1849,.F.);
#1860=CARTESIAN_POINT('',(1.068E2,1.05E2,8.E1));
#1861=DIRECTION('',(0.E0,0.E0,-1.E0));
#1862=DIRECTION('',(-1.E0,0.E0,0.E0));
#1863=AXIS2_PLACEMENT_3D('',#1860,#1861,#1862);
#1864=PLANE('',#1863);
#1865=ORIENTED_EDGE('',*,*,#1169,.F.);
#1867=ORIENTED_EDGE('',*,*,#1866,.T.);
#1869=ORIENTED_EDGE('',*,*,#1868,.T.);
#1870=ORIENTED_EDGE('',*,*,#1851,.F.);
#1871=EDGE_LOOP('',(#1865,#1867,#1869,#1870));
#1872=FACE_OUTER_BOUND('',#1871,.F.);
#1873=ADVANCED_FACE('',(#1872),#1864,.F.);
#1874=CARTESIAN_POINT('',(1.068E2,1.05E2,1.6E2));
#1875=DIRECTION('',(1.E0,0.E0,0.E0));
#1876=DIRECTION('',(0.E0,0.E0,-1.E0));
#1877=AXIS2_PLACEMENT_3D('',#1874,#1875,#1876);
#1878=PLANE('',#1877);
#1879=ORIENTED_EDGE('',*,*,#1167,.F.);
#1881=ORIENTED_EDGE('',*,*,#1880,.T.);
#1883=ORIENTED_EDGE('',*,*,#1882,.T.);
#1884=ORIENTED_EDGE('',*,*,#1866,.F.);
#1885=EDGE_LOOP('',(#1879,#1881,#1883,#1884));
#1886=FACE_OUTER_BOUND('',#1885,.F.);
#1887=ADVANCED_FACE('',(#1886),#1878,.F.);
#1888=CARTESIAN_POINT('',(-1.32E1,1.05E2,1.6E2));
#1889=DIRECTION('',(0.E0,0.E0,1.E0));
#1890=DIRECTION('',(1.E0,0.E0,0.E0));
#1891=AXIS2_PLACEMENT_3D('',#1888,#1889,#1890);
#1892=PLANE('',#1891);
#1893=ORIENTED_EDGE('',*,*,#1165,.F.);
#1894=ORIENTED_EDGE('',*,*,#1855,.T.);
#1896=ORIENTED_EDGE('',*,*,#1895,.T.);
#1897=ORIENTED_EDGE('',*,*,#1880,.F.);
#1898=EDGE_LOOP('',(#1893,#1894,#1896,#1897));
#1899=FACE_OUTER_BOUND('',#1898,.F.);
#1900=ADVANCED_FACE('',(#1899),#1892,.F.);
#1901=CARTESIAN_POINT('',(0.E0,3.5E1,0.E0));
#1902=DIRECTION('',(0.E0,1.E0,0.E0));
#1903=DIRECTION('',(1.E0,0.E0,0.E0));
#1904=AXIS2_PLACEMENT_3D('',#1901,#1902,#1903);
#1905=PLANE('',#1904);
#1906=ORIENTED_EDGE('',*,*,#1853,.F.);
#1907=ORIENTED_EDGE('',*,*,#1868,.F.);
#1908=ORIENTED_EDGE('',*,*,#1882,.F.);
#1909=ORIENTED_EDGE('',*,*,#1895,.F.);
#1910=EDGE_LOOP('',(#1906,#1907,#1908,#1909));
#1911=FACE_OUTER_BOUND('',#1910,.F.);
#1912=ADVANCED_FACE('',(#1911),#1905,.T.);
#1913=CARTESIAN_POINT('',(2.012348609287E2,1.05E2,1.E2));
#1914=DIRECTION('',(0.E0,1.E0,0.E0));
#1915=DIRECTION('',(1.E0,0.E0,0.E0));
#1916=AXIS2_PLACEMENT_3D('',#1913,#1914,#1915);
#1917=CYLINDRICAL_SURFACE('',#1916,1.5E1);
#1918=ORIENTED_EDGE('',*,*,#1173,.F.);
#1920=ORIENTED_EDGE('',*,*,#1919,.T.);
#1922=ORIENTED_EDGE('',*,*,#1921,.T.);
#1924=ORIENTED_EDGE('',*,*,#1923,.F.);
#1925=EDGE_LOOP('',(#1918,#1920,#1922,#1924));
#1926=FACE_OUTER_BOUND('',#1925,.F.);
#1927=ADVANCED_FACE('',(#1926),#1917,.F.);
#1928=CARTESIAN_POINT('',(2.012348609287E2,1.05E2,1.E2));
#1929=DIRECTION('',(0.E0,1.E0,0.E0));
#1930=DIRECTION('',(1.E0,0.E0,0.E0));
#1931=AXIS2_PLACEMENT_3D('',#1928,#1929,#1930);
#1932=CYLINDRICAL_SURFACE('',#1931,1.5E1);
#1933=ORIENTED_EDGE('',*,*,#1175,.F.);
#1934=ORIENTED_EDGE('',*,*,#1923,.T.);
#1936=ORIENTED_EDGE('',*,*,#1935,.T.);
#1937=ORIENTED_EDGE('',*,*,#1919,.F.);
#1938=EDGE_LOOP('',(#1933,#1934,#1936,#1937));
#1939=FACE_OUTER_BOUND('',#1938,.F.);
#1940=ADVANCED_FACE('',(#1939),#1932,.F.);
#1941=CARTESIAN_POINT('',(0.E0,7.E0,0.E0));
#1942=DIRECTION('',(0.E0,1.E0,0.E0));
#1943=DIRECTION('',(1.E0,0.E0,0.E0));
#1944=AXIS2_PLACEMENT_3D('',#1941,#1942,#1943);
#1945=PLANE('',#1944);
#1946=ORIENTED_EDGE('',*,*,#1921,.F.);
#1947=ORIENTED_EDGE('',*,*,#1935,.F.);
#1948=EDGE_LOOP('',(#1946,#1947));
#1949=FACE_OUTER_BOUND('',#1948,.F.);
#1950=ADVANCED_FACE('',(#1949),#1945,.T.);
#1951=CARTESIAN_POINT('',(-5.586114227287E1,1.05E2,4.622196520936E1));
#1952=DIRECTION('',(0.E0,1.E0,0.E0));
#1953=DIRECTION('',(1.E0,0.E0,0.E0));
#1954=AXIS2_PLACEMENT_3D('',#1951,#1952,#1953);
#1955=CYLINDRICAL_SURFACE('',#1954,3.E1);
#1956=ORIENTED_EDGE('',*,*,#1179,.F.);
#1958=ORIENTED_EDGE('',*,*,#1957,.T.);
#1960=ORIENTED_EDGE('',*,*,#1959,.T.);
#1962=ORIENTED_EDGE('',*,*,#1961,.F.);
#1963=EDGE_LOOP('',(#1956,#1958,#1960,#1962));
#1964=FACE_OUTER_BOUND('',#1963,.F.);
#1965=ADVANCED_FACE('',(#1964),#1955,.F.);
#1966=CARTESIAN_POINT('',(-5.586114227287E1,1.05E2,4.622196520936E1));
#1967=DIRECTION('',(0.E0,1.E0,0.E0));
#1968=DIRECTION('',(1.E0,0.E0,0.E0));
#1969=AXIS2_PLACEMENT_3D('',#1966,#1967,#1968);
#1970=CYLINDRICAL_SURFACE('',#1969,3.E1);
#1971=ORIENTED_EDGE('',*,*,#1181,.F.);
#1972=ORIENTED_EDGE('',*,*,#1961,.T.);
#1974=ORIENTED_EDGE('',*,*,#1973,.T.);
#1975=ORIENTED_EDGE('',*,*,#1957,.F.);
#1976=EDGE_LOOP('',(#1971,#1972,#1974,#1975));
#1977=FACE_OUTER_BOUND('',#1976,.F.);
#1978=ADVANCED_FACE('',(#1977),#1970,.F.);
#1979=CARTESIAN_POINT('',(0.E0,3.25E1,0.E0));
#1980=DIRECTION('',(0.E0,1.E0,0.E0));
#1981=DIRECTION('',(1.E0,0.E0,0.E0));
#1982=AXIS2_PLACEMENT_3D('',#1979,#1980,#1981);
#1983=PLANE('',#1982);
#1984=ORIENTED_EDGE('',*,*,#1959,.F.);
#1985=ORIENTED_EDGE('',*,*,#1973,.F.);
#1986=EDGE_LOOP('',(#1984,#1985));
#1987=FACE_OUTER_BOUND('',#1986,.F.);
#1988=ADVANCED_FACE('',(#1987),#1983,.T.);
#1989=CARTESIAN_POINT('',(-2.165E2,1.05E2,8.E1));
#1990=DIRECTION('',(-1.E0,0.E0,0.E0));
#1991=DIRECTION('',(0.E0,0.E0,1.E0));
#1992=AXIS2_PLACEMENT_3D('',#1989,#1990,#1991);
#1993=PLANE('',#1992);
#1994=ORIENTED_EDGE('',*,*,#1185,.F.);
#1996=ORIENTED_EDGE('',*,*,#1995,.T.);
#1998=ORIENTED_EDGE('',*,*,#1997,.T.);
#2000=ORIENTED_EDGE('',*,*,#1999,.F.);
#2001=EDGE_LOOP('',(#1994,#1996,#1998,#2000));
#2002=FACE_OUTER_BOUND('',#2001,.F.);
#2003=ADVANCED_FACE('',(#2002),#1993,.F.);
#2004=CARTESIAN_POINT('',(-7.65E1,1.05E2,8.E1));
#2005=DIRECTION('',(0.E0,0.E0,-1.E0));
#2006=DIRECTION('',(-1.E0,0.E0,0.E0));
#2007=AXIS2_PLACEMENT_3D('',#2004,#2005,#2006);
#2008=PLANE('',#2007);
#2009=ORIENTED_EDGE('',*,*,#1191,.F.);
#2011=ORIENTED_EDGE('',*,*,#2010,.T.);
#2013=ORIENTED_EDGE('',*,*,#2012,.T.);
#2014=ORIENTED_EDGE('',*,*,#1995,.F.);
#2015=EDGE_LOOP('',(#2009,#2011,#2013,#2014));
#2016=FACE_OUTER_BOUND('',#2015,.F.);
#2017=ADVANCED_FACE('',(#2016),#2008,.F.);
#2018=CARTESIAN_POINT('',(-7.65E1,1.05E2,1.6E2));
#2019=DIRECTION('',(1.E0,0.E0,0.E0));
#2020=DIRECTION('',(0.E0,0.E0,-1.E0));
#2021=AXIS2_PLACEMENT_3D('',#2018,#2019,#2020);
#2022=PLANE('',#2021);
#2023=ORIENTED_EDGE('',*,*,#1189,.F.);
#2025=ORIENTED_EDGE('',*,*,#2024,.T.);
#2027=ORIENTED_EDGE('',*,*,#2026,.T.);
#2028=ORIENTED_EDGE('',*,*,#2010,.F.);
#2029=EDGE_LOOP('',(#2023,#2025,#2027,#2028));
#2030=FACE_OUTER_BOUND('',#2029,.F.);
#2031=ADVANCED_FACE('',(#2030),#2022,.F.);
#2032=CARTESIAN_POINT('',(-2.165E2,1.05E2,1.6E2));
#2033=DIRECTION('',(0.E0,0.E0,1.E0));
#2034=DIRECTION('',(1.E0,0.E0,0.E0));
#2035=AXIS2_PLACEMENT_3D('',#2032,#2033,#2034);
#2036=PLANE('',#2035);
#2037=ORIENTED_EDGE('',*,*,#1187,.F.);
#2038=ORIENTED_EDGE('',*,*,#1999,.T.);
#2040=ORIENTED_EDGE('',*,*,#2039,.T.);
#2041=ORIENTED_EDGE('',*,*,#2024,.F.);
#2042=EDGE_LOOP('',(#2037,#2038,#2040,#2041));
#2043=FACE_OUTER_BOUND('',#2042,.F.);
#2044=ADVANCED_FACE('',(#2043),#2036,.F.);
#2045=CARTESIAN_POINT('',(0.E0,5.5E1,0.E0));
#2046=DIRECTION('',(0.E0,1.E0,0.E0));
#2047=DIRECTION('',(1.E0,0.E0,0.E0));
#2048=AXIS2_PLACEMENT_3D('',#2045,#2046,#2047);
#2049=PLANE('',#2048);
#2050=ORIENTED_EDGE('',*,*,#1997,.F.);
#2051=ORIENTED_EDGE('',*,*,#2012,.F.);
#2052=ORIENTED_EDGE('',*,*,#2026,.F.);
#2053=ORIENTED_EDGE('',*,*,#2039,.F.);
#2054=EDGE_LOOP('',(#2050,#2051,#2052,#2053));
#2055=FACE_OUTER_BOUND('',#2054,.F.);
#2056=ADVANCED_FACE('',(#2055),#2049,.T.);
#2057=CARTESIAN_POINT('',(-6.15E1,1.05E2,-1.5E2));
#2058=DIRECTION('',(-1.E0,0.E0,0.E0));
#2059=DIRECTION('',(0.E0,0.E0,1.E0));
#2060=AXIS2_PLACEMENT_3D('',#2057,#2058,#2059);
#2061=PLANE('',#2060);
#2062=ORIENTED_EDGE('',*,*,#1195,.F.);
#2064=ORIENTED_EDGE('',*,*,#2063,.T.);
#2066=ORIENTED_EDGE('',*,*,#2065,.T.);
#2068=ORIENTED_EDGE('',*,*,#2067,.F.);
#2069=EDGE_LOOP('',(#2062,#2064,#2066,#2068));
#2070=FACE_OUTER_BOUND('',#2069,.F.);
#2071=ADVANCED_FACE('',(#2070),#2061,.F.);
#2072=CARTESIAN_POINT('',(-4.65E1,1.05E2,-1.5E2));
#2073=DIRECTION('',(0.E0,0.E0,-1.E0));
#2074=DIRECTION('',(-1.E0,0.E0,0.E0));
#2075=AXIS2_PLACEMENT_3D('',#2072,#2073,#2074);
#2076=PLANE('',#2075);
#2077=ORIENTED_EDGE('',*,*,#1201,.F.);
#2079=ORIENTED_EDGE('',*,*,#2078,.T.);
#2081=ORIENTED_EDGE('',*,*,#2080,.T.);
#2082=ORIENTED_EDGE('',*,*,#2063,.F.);
#2083=EDGE_LOOP('',(#2077,#2079,#2081,#2082));
#2084=FACE_OUTER_BOUND('',#2083,.F.);
#2085=ADVANCED_FACE('',(#2084),#2076,.F.);
#2086=CARTESIAN_POINT('',(-4.65E1,1.05E2,5.E0));
#2087=DIRECTION('',(1.E0,0.E0,0.E0));
#2088=DIRECTION('',(0.E0,0.E0,-1.E0));
#2089=AXIS2_PLACEMENT_3D('',#2086,#2087,#2088);
#2090=PLANE('',#2089);
#2091=ORIENTED_EDGE('',*,*,#1199,.F.);
#2093=ORIENTED_EDGE('',*,*,#2092,.T.);
#2095=ORIENTED_EDGE('',*,*,#2094,.T.);
#2096=ORIENTED_EDGE('',*,*,#2078,.F.);
#2097=EDGE_LOOP('',(#2091,#2093,#2095,#2096));
#2098=FACE_OUTER_BOUND('',#2097,.F.);
#2099=ADVANCED_FACE('',(#2098),#2090,.F.);
#2100=CARTESIAN_POINT('',(-6.15E1,1.05E2,5.E0));
#2101=DIRECTION('',(0.E0,0.E0,1.E0));
#2102=DIRECTION('',(1.E0,0.E0,0.E0));
#2103=AXIS2_PLACEMENT_3D('',#2100,#2101,#2102);
#2104=PLANE('',#2103);
#2105=ORIENTED_EDGE('',*,*,#1197,.F.);
#2106=ORIENTED_EDGE('',*,*,#2067,.T.);
#2108=ORIENTED_EDGE('',*,*,#2107,.T.);
#2109=ORIENTED_EDGE('',*,*,#2092,.F.);
#2110=EDGE_LOOP('',(#2105,#2106,#2108,#2109));
#2111=FACE_OUTER_BOUND('',#2110,.F.);
#2112=ADVANCED_FACE('',(#2111),#2104,.F.);
#2113=CARTESIAN_POINT('',(0.E0,8.E1,0.E0));
#2114=DIRECTION('',(0.E0,1.E0,0.E0));
#2115=DIRECTION('',(1.E0,0.E0,0.E0));
#2116=AXIS2_PLACEMENT_3D('',#2113,#2114,#2115);
#2117=PLANE('',#2116);
#2118=ORIENTED_EDGE('',*,*,#2065,.F.);
#2119=ORIENTED_EDGE('',*,*,#2080,.F.);
#2120=ORIENTED_EDGE('',*,*,#2094,.F.);
#2121=ORIENTED_EDGE('',*,*,#2107,.F.);
#2122=EDGE_LOOP('',(#2118,#2119,#2120,#2121));
#2123=FACE_OUTER_BOUND('',#2122,.F.);
#2124=ADVANCED_FACE('',(#2123),#2117,.T.);
#2125=CARTESIAN_POINT('',(8.45E1,1.05E2,4.E1));
#2126=DIRECTION('',(0.E0,0.E0,1.E0));
#2127=DIRECTION('',(1.E0,0.E0,0.E0));
#2128=AXIS2_PLACEMENT_3D('',#2125,#2126,#2127);
#2129=PLANE('',#2128);
#2130=ORIENTED_EDGE('',*,*,#1205,.F.);
#2132=ORIENTED_EDGE('',*,*,#2131,.T.);
#2134=ORIENTED_EDGE('',*,*,#2133,.T.);
#2136=ORIENTED_EDGE('',*,*,#2135,.F.);
#2137=EDGE_LOOP('',(#2130,#2132,#2134,#2136));
#2138=FACE_OUTER_BOUND('',#2137,.F.);
#2139=ADVANCED_FACE('',(#2138),#2129,.F.);
#2140=CARTESIAN_POINT('',(8.45E1,1.05E2,-1.6E2));
#2141=DIRECTION('',(-1.E0,0.E0,0.E0));
#2142=DIRECTION('',(0.E0,0.E0,1.E0));
#2143=AXIS2_PLACEMENT_3D('',#2140,#2141,#2142);
#2144=PLANE('',#2143);
#2145=ORIENTED_EDGE('',*,*,#1211,.F.);
#2147=ORIENTED_EDGE('',*,*,#2146,.T.);
#2149=ORIENTED_EDGE('',*,*,#2148,.T.);
#2150=ORIENTED_EDGE('',*,*,#2131,.F.);
#2151=EDGE_LOOP('',(#2145,#2147,#2149,#2150));
#2152=FACE_OUTER_BOUND('',#2151,.F.);
#2153=ADVANCED_FACE('',(#2152),#2144,.F.);
#2154=CARTESIAN_POINT('',(1.125E2,1.05E2,-1.6E2));
#2155=DIRECTION('',(0.E0,0.E0,-1.E0));
#2156=DIRECTION('',(-1.E0,0.E0,0.E0));
#2157=AXIS2_PLACEMENT_3D('',#2154,#2155,#2156);
#2158=PLANE('',#2157);
#2159=ORIENTED_EDGE('',*,*,#1209,.F.);
#2161=ORIENTED_EDGE('',*,*,#2160,.T.);
#2163=ORIENTED_EDGE('',*,*,#2162,.T.);
#2164=ORIENTED_EDGE('',*,*,#2146,.F.);
#2165=EDGE_LOOP('',(#2159,#2161,#2163,#2164));
#2166=FACE_OUTER_BOUND('',#2165,.F.);
#2167=ADVANCED_FACE('',(#2166),#2158,.F.);
#2168=CARTESIAN_POINT('',(1.125E2,1.05E2,4.E1));
#2169=DIRECTION('',(1.E0,0.E0,0.E0));
#2170=DIRECTION('',(0.E0,0.E0,-1.E0));
#2171=AXIS2_PLACEMENT_3D('',#2168,#2169,#2170);
#2172=PLANE('',#2171);
#2173=ORIENTED_EDGE('',*,*,#1207,.F.);
#2174=ORIENTED_EDGE('',*,*,#2135,.T.);
#2176=ORIENTED_EDGE('',*,*,#2175,.T.);
#2177=ORIENTED_EDGE('',*,*,#2160,.F.);
#2178=EDGE_LOOP('',(#2173,#2174,#2176,#2177));
#2179=FACE_OUTER_BOUND('',#2178,.F.);
#2180=ADVANCED_FACE('',(#2179),#2172,.F.);
#2181=CARTESIAN_POINT('',(0.E0,5.E1,0.E0));
#2182=DIRECTION('',(0.E0,1.E0,0.E0));
#2183=DIRECTION('',(1.E0,0.E0,0.E0));
#2184=AXIS2_PLACEMENT_3D('',#2181,#2182,#2183);
#2185=PLANE('',#2184);
#2186=ORIENTED_EDGE('',*,*,#2133,.F.);
#2187=ORIENTED_EDGE('',*,*,#2148,.F.);
#2188=ORIENTED_EDGE('',*,*,#2162,.F.);
#2189=ORIENTED_EDGE('',*,*,#2175,.F.);
#2190=EDGE_LOOP('',(#2186,#2187,#2188,#2189));
#2191=FACE_OUTER_BOUND('',#2190,.F.);
#2192=ADVANCED_FACE('',(#2191),#2185,.T.);
#2196=DIMENSIONAL_EXPONENTS(0.E0,0.E0,0.E0,0.E0,0.E0,0.E0,0.E0);
#2198=PLANE_ANGLE_MEASURE_WITH_UNIT(PLANE_ANGLE_MEASURE(1.745329251994E-2),
#2197);
#2199=(CONVERSION_BASED_UNIT('DEGREE',#2198)NAMED_UNIT(*)PLANE_ANGLE_UNIT());
#2201=UNCERTAINTY_MEASURE_WITH_UNIT(LENGTH_MEASURE(1.E-2),#2195,'closure',
'Maximum model space distance between geometric entities at asserted connectivities');
#2202=(GEOMETRIC_REPRESENTATION_CONTEXT(3)GLOBAL_UNCERTAINTY_ASSIGNED_CONTEXT((
#2201))GLOBAL_UNIT_ASSIGNED_CONTEXT((#2195,#2199,#2200))REPRESENTATION_CONTEXT(
'ID1','3'));
#2204=APPLICATION_CONTEXT(
'CONFIGURATION CONTROLLED 3D DESIGNS OF MECHANICAL PARTS AND ASSEMBLIES');
#2205=APPLICATION_PROTOCOL_DEFINITION('international standard',
'config_control_design',1994,#2204);
#2206=DESIGN_CONTEXT('',#2204,'design');
#2207=MECHANICAL_CONTEXT('',#2204,'mechanical');
#2208=PRODUCT('01B_SCHAUM','01B_SCHAUM','NOT SPECIFIED',(#2207));
#2209=PRODUCT_DEFINITION_FORMATION_WITH_SPECIFIED_SOURCE('1','LAST_VERSION',
#2208,.MADE.);
#2213=PRODUCT_CATEGORY('part','');
#2214=PRODUCT_RELATED_PRODUCT_CATEGORY('detail','',(#2208));
#2215=PRODUCT_CATEGORY_RELATIONSHIP('','',#2213,#2214);
#2216=SECURITY_CLASSIFICATION_LEVEL('unclassified');
#2217=SECURITY_CLASSIFICATION('','',#2216);
#2218=CC_DESIGN_SECURITY_CLASSIFICATION(#2217,(#2209));
#2219=APPROVAL_STATUS('approved');
#2220=APPROVAL(#2219,'');
#2221=CC_DESIGN_APPROVAL(#2220,(#2217,#2209,#2210));
#2222=CALENDAR_DATE(126,18,5);
#2223=COORDINATED_UNIVERSAL_TIME_OFFSET(2,0,.AHEAD.);
#2224=LOCAL_TIME(10,20,5.2E1,#2223);
#2225=DATE_AND_TIME(#2222,#2224);
#2226=APPROVAL_DATE_TIME(#2225,#2220);
#2227=DATE_TIME_ROLE('creation_date');
#2228=CC_DESIGN_DATE_AND_TIME_ASSIGNMENT(#2225,#2227,(#2210));
#2229=DATE_TIME_ROLE('classification_date');
#2230=CC_DESIGN_DATE_AND_TIME_ASSIGNMENT(#2225,#2229,(#2217));
#2231=PERSON('UNSPECIFIED','UNSPECIFIED',$,$,$,$);
#2232=ORGANIZATION('UNSPECIFIED','UNSPECIFIED','UNSPECIFIED');
#2233=PERSON_AND_ORGANIZATION(#2231,#2232);
#2234=APPROVAL_ROLE('approver');
#2235=APPROVAL_PERSON_ORGANIZATION(#2233,#2220,#2234);
#2236=PERSON_AND_ORGANIZATION_ROLE('creator');
#2237=CC_DESIGN_PERSON_AND_ORGANIZATION_ASSIGNMENT(#2233,#2236,(#2209,#2210));
#2238=PERSON_AND_ORGANIZATION_ROLE('design_supplier');
#2239=CC_DESIGN_PERSON_AND_ORGANIZATION_ASSIGNMENT(#2233,#2238,(#2209));
#2240=PERSON_AND_ORGANIZATION_ROLE('classification_officer');
#2241=CC_DESIGN_PERSON_AND_ORGANIZATION_ASSIGNMENT(#2233,#2240,(#2217));
#2242=PERSON_AND_ORGANIZATION_ROLE('design_owner');
#2243=CC_DESIGN_PERSON_AND_ORGANIZATION_ASSIGNMENT(#2233,#2242,(#2208));
#102=CIRCLE('',#101,1.5E1);
#107=CIRCLE('',#106,1.5E1);
#212=CIRCLE('',#211,1.5E1);
#217=CIRCLE('',#216,1.5E1);
#222=CIRCLE('',#221,3.E1);
#227=CIRCLE('',#226,3.E1);
#384=CIRCLE('',#383,1.5E1);
#389=CIRCLE('',#388,1.5E1);
#626=CIRCLE('',#625,1.5E1);
#631=CIRCLE('',#630,1.5E1);
#644=CIRCLE('',#643,3.E1);
#649=CIRCLE('',#648,3.E1);
#995=EDGE_CURVE('',#748,#749,#5,.T.);
#997=EDGE_CURVE('',#749,#751,#9,.T.);
#999=EDGE_CURVE('',#751,#753,#13,.T.);
#1001=EDGE_CURVE('',#753,#748,#17,.T.);
#1012=EDGE_CURVE('',#748,#756,#21,.T.);
#1014=EDGE_CURVE('',#756,#757,#37,.T.);
#1016=EDGE_CURVE('',#749,#757,#33,.T.);
#1027=EDGE_CURVE('',#753,#761,#25,.T.);
#1029=EDGE_CURVE('',#761,#756,#41,.T.);
#1041=EDGE_CURVE('',#751,#759,#29,.T.);
#1043=EDGE_CURVE('',#759,#761,#45,.T.);
#1056=EDGE_CURVE('',#757,#759,#49,.T.);
#1073=EDGE_CURVE('',#772,#773,#53,.T.);
#1075=EDGE_CURVE('',#773,#775,#57,.T.);
#1077=EDGE_CURVE('',#775,#777,#61,.T.);
#1079=EDGE_CURVE('',#777,#772,#65,.T.);
#1083=EDGE_CURVE('',#788,#789,#69,.T.);
#1085=EDGE_CURVE('',#789,#791,#73,.T.);
#1087=EDGE_CURVE('',#791,#793,#77,.T.);
#1089=EDGE_CURVE('',#793,#788,#81,.T.);
#1093=EDGE_CURVE('',#804,#805,#85,.T.);
#1095=EDGE_CURVE('',#805,#807,#89,.T.);
#1097=EDGE_CURVE('',#807,#809,#93,.T.);
#1099=EDGE_CURVE('',#809,#804,#97,.T.);
#1103=EDGE_CURVE('',#816,#817,#102,.T.);
#1105=EDGE_CURVE('',#817,#816,#107,.T.);
#1109=EDGE_CURVE('',#828,#829,#111,.T.);
#1111=EDGE_CURVE('',#829,#831,#115,.T.);
#1113=EDGE_CURVE('',#831,#833,#119,.T.);
#1115=EDGE_CURVE('',#833,#828,#123,.T.);
#1119=EDGE_CURVE('',#844,#845,#127,.T.);
#1121=EDGE_CURVE('',#845,#847,#131,.T.);
#1123=EDGE_CURVE('',#847,#849,#135,.T.);
#1125=EDGE_CURVE('',#849,#844,#139,.T.);
#1129=EDGE_CURVE('',#860,#861,#143,.T.);
#1131=EDGE_CURVE('',#861,#863,#147,.T.);
#1133=EDGE_CURVE('',#863,#865,#151,.T.);
#1135=EDGE_CURVE('',#865,#860,#155,.T.);
#1139=EDGE_CURVE('',#890,#891,#159,.T.);
#1141=EDGE_CURVE('',#891,#893,#163,.T.);
#1143=EDGE_CURVE('',#876,#893,#513,.T.);
#1145=EDGE_CURVE('',#876,#877,#167,.T.);
#1147=EDGE_CURVE('',#877,#879,#171,.T.);
#1149=EDGE_CURVE('',#879,#890,#175,.T.);
#1153=EDGE_CURVE('',#904,#905,#179,.T.);
#1155=EDGE_CURVE('',#905,#907,#183,.T.);
#1157=EDGE_CURVE('',#907,#909,#187,.T.);
#1159=EDGE_CURVE('',#909,#904,#191,.T.);
#1163=EDGE_CURVE('',#920,#921,#195,.T.);
#1165=EDGE_CURVE('',#921,#923,#199,.T.);
#1167=EDGE_CURVE('',#923,#925,#203,.T.);
#1169=EDGE_CURVE('',#925,#920,#207,.T.);
#1173=EDGE_CURVE('',#932,#933,#212,.T.);
#1175=EDGE_CURVE('',#933,#932,#217,.T.);
#1179=EDGE_CURVE('',#940,#941,#222,.T.);
#1181=EDGE_CURVE('',#941,#940,#227,.T.);
#1185=EDGE_CURVE('',#952,#953,#231,.T.);
#1187=EDGE_CURVE('',#953,#955,#235,.T.);
#1189=EDGE_CURVE('',#955,#957,#239,.T.);
#1191=EDGE_CURVE('',#957,#952,#243,.T.);
#1195=EDGE_CURVE('',#968,#969,#247,.T.);
#1197=EDGE_CURVE('',#969,#971,#251,.T.);
#1199=EDGE_CURVE('',#971,#973,#255,.T.);
#1201=EDGE_CURVE('',#973,#968,#259,.T.);
#1205=EDGE_CURVE('',#984,#985,#263,.T.);
#1207=EDGE_CURVE('',#985,#987,#267,.T.);
#1209=EDGE_CURVE('',#987,#989,#271,.T.);
#1211=EDGE_CURVE('',#989,#984,#275,.T.);
#1222=EDGE_CURVE('',#772,#764,#279,.T.);
#1224=EDGE_CURVE('',#764,#765,#295,.T.);
#1226=EDGE_CURVE('',#773,#765,#291,.T.);
#1237=EDGE_CURVE('',#777,#769,#283,.T.);
#1239=EDGE_CURVE('',#769,#764,#299,.T.);
#1251=EDGE_CURVE('',#775,#767,#287,.T.);
#1253=EDGE_CURVE('',#767,#769,#303,.T.);
#1266=EDGE_CURVE('',#765,#767,#307,.T.);
#1290=EDGE_CURVE('',#788,#780,#311,.T.);
#1292=EDGE_CURVE('',#780,#781,#327,.T.);
#1294=EDGE_CURVE('',#789,#781,#323,.T.);
#1305=EDGE_CURVE('',#793,#785,#315,.T.);
#1307=EDGE_CURVE('',#785,#780,#331,.T.);
#1319=EDGE_CURVE('',#791,#783,#319,.T.);
#1321=EDGE_CURVE('',#783,#785,#335,.T.);
#1334=EDGE_CURVE('',#781,#783,#339,.T.);
#1358=EDGE_CURVE('',#804,#796,#343,.T.);
#1360=EDGE_CURVE('',#796,#797,#359,.T.);
#1362=EDGE_CURVE('',#805,#797,#355,.T.);
#1373=EDGE_CURVE('',#809,#801,#347,.T.);
#1375=EDGE_CURVE('',#801,#796,#363,.T.);
#1387=EDGE_CURVE('',#807,#799,#351,.T.);
#1389=EDGE_CURVE('',#799,#801,#367,.T.);
#1402=EDGE_CURVE('',#797,#799,#371,.T.);
#1426=EDGE_CURVE('',#816,#812,#375,.T.);
#1428=EDGE_CURVE('',#812,#813,#384,.T.);
#1430=EDGE_CURVE('',#817,#813,#379,.T.);
#1442=EDGE_CURVE('',#813,#812,#389,.T.);
#1464=EDGE_CURVE('',#828,#820,#393,.T.);
#1466=EDGE_CURVE('',#820,#821,#409,.T.);
#1468=EDGE_CURVE('',#829,#821,#405,.T.);
#1479=EDGE_CURVE('',#833,#825,#397,.T.);
#1481=EDGE_CURVE('',#825,#820,#413,.T.);
#1493=EDGE_CURVE('',#831,#823,#401,.T.);
#1495=EDGE_CURVE('',#823,#825,#417,.T.);
#1508=EDGE_CURVE('',#821,#823,#421,.T.);
#1532=EDGE_CURVE('',#844,#836,#425,.T.);
#1534=EDGE_CURVE('',#836,#837,#441,.T.);
#1536=EDGE_CURVE('',#845,#837,#437,.T.);
#1547=EDGE_CURVE('',#849,#841,#429,.T.);
#1549=EDGE_CURVE('',#841,#836,#445,.T.);
#1561=EDGE_CURVE('',#847,#839,#433,.T.);
#1563=EDGE_CURVE('',#839,#841,#449,.T.);
#1576=EDGE_CURVE('',#837,#839,#453,.T.);
#1600=EDGE_CURVE('',#860,#852,#457,.T.);
#1602=EDGE_CURVE('',#852,#853,#473,.T.);
#1604=EDGE_CURVE('',#861,#853,#469,.T.);
#1615=EDGE_CURVE('',#865,#857,#461,.T.);
#1617=EDGE_CURVE('',#857,#852,#477,.T.);
#1629=EDGE_CURVE('',#863,#855,#465,.T.);
#1631=EDGE_CURVE('',#855,#857,#481,.T.);
#1644=EDGE_CURVE('',#853,#855,#485,.T.);
#1668=EDGE_CURVE('',#890,#886,#493,.T.);
#1670=EDGE_CURVE('',#886,#883,#509,.T.);
#1672=EDGE_CURVE('',#891,#883,#525,.T.);
#1682=EDGE_CURVE('',#886,#887,#489,.T.);
#1686=EDGE_CURVE('',#879,#871,#497,.T.);
#1688=EDGE_CURVE('',#871,#873,#537,.T.);
#1690=EDGE_CURVE('',#887,#873,#521,.T.);
#1701=EDGE_CURVE('',#882,#887,#501,.T.);
#1703=EDGE_CURVE('',#882,#883,#505,.T.);
#1715=EDGE_CURVE('',#893,#882,#517,.T.);
#1719=EDGE_CURVE('',#873,#868,#533,.T.);
#1721=EDGE_CURVE('',#876,#868,#545,.T.);
#1743=EDGE_CURVE('',#868,#869,#529,.T.);
#1747=EDGE_CURVE('',#869,#871,#541,.T.);
#1760=EDGE_CURVE('',#877,#869,#549,.T.);
#1783=EDGE_CURVE('',#904,#896,#553,.T.);
#1785=EDGE_CURVE('',#896,#897,#569,.T.);
#1787=EDGE_CURVE('',#905,#897,#565,.T.);
#1798=EDGE_CURVE('',#909,#901,#557,.T.);
#1800=EDGE_CURVE('',#901,#896,#573,.T.);
#1812=EDGE_CURVE('',#907,#899,#561,.T.);
#1814=EDGE_CURVE('',#899,#901,#577,.T.);
#1827=EDGE_CURVE('',#897,#899,#581,.T.);
#1851=EDGE_CURVE('',#920,#912,#585,.T.);
#1853=EDGE_CURVE('',#912,#913,#601,.T.);
#1855=EDGE_CURVE('',#921,#913,#597,.T.);
#1866=EDGE_CURVE('',#925,#917,#589,.T.);
#1868=EDGE_CURVE('',#917,#912,#605,.T.);
#1880=EDGE_CURVE('',#923,#915,#593,.T.);
#1882=EDGE_CURVE('',#915,#917,#609,.T.);
#1895=EDGE_CURVE('',#913,#915,#613,.T.);
#1919=EDGE_CURVE('',#932,#928,#617,.T.);
#1921=EDGE_CURVE('',#928,#929,#626,.T.);
#1923=EDGE_CURVE('',#933,#929,#621,.T.);
#1935=EDGE_CURVE('',#929,#928,#631,.T.);
#1957=EDGE_CURVE('',#940,#936,#635,.T.);
#1959=EDGE_CURVE('',#936,#937,#644,.T.);
#1961=EDGE_CURVE('',#941,#937,#639,.T.);
#1973=EDGE_CURVE('',#937,#936,#649,.T.);
#1995=EDGE_CURVE('',#952,#944,#653,.T.);
#1997=EDGE_CURVE('',#944,#945,#669,.T.);
#1999=EDGE_CURVE('',#953,#945,#665,.T.);
#2010=EDGE_CURVE('',#957,#949,#657,.T.);
#2012=EDGE_CURVE('',#949,#944,#673,.T.);
#2024=EDGE_CURVE('',#955,#947,#661,.T.);
#2026=EDGE_CURVE('',#947,#949,#677,.T.);
#2039=EDGE_CURVE('',#945,#947,#681,.T.);
#2063=EDGE_CURVE('',#968,#960,#685,.T.);
#2065=EDGE_CURVE('',#960,#961,#701,.T.);
#2067=EDGE_CURVE('',#969,#961,#697,.T.);
#2078=EDGE_CURVE('',#973,#965,#689,.T.);
#2080=EDGE_CURVE('',#965,#960,#705,.T.);
#2092=EDGE_CURVE('',#971,#963,#693,.T.);
#2094=EDGE_CURVE('',#963,#965,#709,.T.);
#2107=EDGE_CURVE('',#961,#963,#713,.T.);
#2131=EDGE_CURVE('',#984,#976,#717,.T.);
#2133=EDGE_CURVE('',#976,#977,#733,.T.);
#2135=EDGE_CURVE('',#985,#977,#729,.T.);
#2146=EDGE_CURVE('',#989,#981,#721,.T.);
#2148=EDGE_CURVE('',#981,#976,#737,.T.);
#2160=EDGE_CURVE('',#987,#979,#725,.T.);
#2162=EDGE_CURVE('',#979,#981,#741,.T.);
#2175=EDGE_CURVE('',#977,#979,#745,.T.);
#2193=CLOSED_SHELL('',(#1005,#1020,#1034,#1048,#1061,#1215,#1230,#1244,#1258,
#1271,#1283,#1298,#1312,#1326,#1339,#1351,#1366,#1380,#1394,#1407,#1419,#1434,
#1447,#1457,#1472,#1486,#1500,#1513,#1525,#1540,#1554,#1568,#1581,#1593,#1608,
#1622,#1636,#1649,#1661,#1676,#1694,#1708,#1725,#1737,#1751,#1764,#1776,#1791,
#1805,#1819,#1832,#1844,#1859,#1873,#1887,#1900,#1912,#1927,#1940,#1950,#1965,
#1978,#1988,#2003,#2017,#2031,#2044,#2056,#2071,#2085,#2099,#2112,#2124,#2139,
#2153,#2167,#2180,#2192));
#2194=MANIFOLD_SOLID_BREP('',#2193);
#2195=(LENGTH_UNIT()NAMED_UNIT(*)SI_UNIT(.MILLI.,.METRE.));
#2197=(NAMED_UNIT(*)PLANE_ANGLE_UNIT()SI_UNIT($,.RADIAN.));
#2200=(NAMED_UNIT(*)SI_UNIT($,.STERADIAN.)SOLID_ANGLE_UNIT());
#2203=ADVANCED_BREP_SHAPE_REPRESENTATION('',(#2194),#2202);
#2210=PRODUCT_DEFINITION('design','',#2209,#2206);
#2211=PRODUCT_DEFINITION_SHAPE('','SHAPE FOR 01B_SCHAUM.',#2210);
#2212=SHAPE_DEFINITION_REPRESENTATION(#2211,#2203);
ENDSEC;
END-ISO-10303-21;
